<svg width="2358" height="1516" xmlns="http://www.w3.org/2000/svg" xmlns:xlink="http://www.w3.org/1999/xlink" xml:space="preserve" overflow="hidden"><defs><clipPath id="clip0"><rect x="578" y="244" width="2358" height="1516"/></clipPath><linearGradient x1="1431.5" y1="827.962" x2="1431.5" y2="413.038" gradientUnits="userSpaceOnUse" spreadMethod="reflect" id="fill1"><stop offset="0" stop-color="#0061E3"/><stop offset="0.0163934" stop-color="#0062E3"/><stop offset="0.0327869" stop-color="#0064E3"/><stop offset="0.0491803" stop-color="#0066E3"/><stop offset="0.0655738" stop-color="#0068E3"/><stop offset="0.0819672" stop-color="#006AE4"/><stop offset="0.0983607" stop-color="#006BE4"/><stop offset="0.114754" stop-color="#006DE4"/><stop offset="0.131148" stop-color="#006FE4"/><stop offset="0.147541" stop-color="#0071E5"/><stop offset="0.163934" stop-color="#0072E5"/><stop offset="0.180328" stop-color="#0074E5"/><stop offset="0.196721" stop-color="#0075E5"/><stop offset="0.213115" stop-color="#0077E5"/><stop offset="0.229508" stop-color="#0078E6"/><stop offset="0.245902" stop-color="#007AE6"/><stop offset="0.262295" stop-color="#007BE6"/><stop offset="0.278689" stop-color="#007DE6"/><stop offset="0.295082" stop-color="#007EE6"/><stop offset="0.311475" stop-color="#0080E7"/><stop offset="0.327869" stop-color="#0081E7"/><stop offset="0.344262" stop-color="#0082E7"/><stop offset="0.360656" stop-color="#0084E7"/><stop offset="0.377049" stop-color="#0085E7"/><stop offset="0.393443" stop-color="#0086E7"/><stop offset="0.409836" stop-color="#0087E8"/><stop offset="0.42623" stop-color="#0089E8"/><stop offset="0.442623" stop-color="#008AE8"/><stop offset="0.459016" stop-color="#008BE8"/><stop offset="0.47541" stop-color="#008CE8"/><stop offset="0.491803" stop-color="#008DE8"/><stop offset="0.508197" stop-color="#008EE8"/><stop offset="0.52459" stop-color="#008FE9"/><stop offset="0.540984" stop-color="#0090E9"/><stop offset="0.557377" stop-color="#0091E9"/><stop offset="0.57377" stop-color="#0092E9"/><stop offset="0.590164" stop-color="#0093E9"/><stop offset="0.606557" stop-color="#0094E9"/><stop offset="0.622951" stop-color="#0095E9"/><stop offset="0.639344" stop-color="#0095E9"/><stop offset="0.655738" stop-color="#0096E9"/><stop offset="0.672131" stop-color="#0097EA"/><stop offset="0.688525" stop-color="#0098EA"/><stop offset="0.704918" stop-color="#0098EA"/><stop offset="0.721311" stop-color="#0099EA"/><stop offset="0.737705" stop-color="#0099EA"/><stop offset="0.754098" stop-color="#009AEA"/><stop offset="0.770492" stop-color="#009BEA"/><stop offset="0.786885" stop-color="#009BEA"/><stop offset="0.803279" stop-color="#009CEA"/><stop offset="0.819672" stop-color="#009CEA"/><stop offset="0.836066" stop-color="#009CEA"/><stop offset="0.852459" stop-color="#009DEA"/><stop offset="0.868852" stop-color="#009DEA"/><stop offset="0.885246" stop-color="#009DEA"/><stop offset="0.901639" stop-color="#009EEA"/><stop offset="0.918033" stop-color="#009EEA"/><stop offset="0.934426" stop-color="#009EEA"/><stop offset="0.95082" stop-color="#009EEA"/><stop offset="0.967213" stop-color="#009EEA"/><stop offset="0.983607" stop-color="#009EEA"/><stop offset="1" stop-color="#009FEB"/></linearGradient><linearGradient x1="2498" y1="1606" x2="2498" y2="1448" gradientUnits="userSpaceOnUse" spreadMethod="reflect" id="fill2"><stop offset="0" stop-color="#8D8888"/><stop offset="0.48" stop-color="#D1CFCF"/><stop offset="1" stop-color="#E3E2E2"/></linearGradient><linearGradient x1="2502.5" y1="1337" x2="2502.5" y2="1179" gradientUnits="userSpaceOnUse" spreadMethod="reflect" id="fill3"><stop offset="0" stop-color="#0061E3"/><stop offset="0.0163934" stop-color="#0062E3"/><stop offset="0.0327869" stop-color="#0064E3"/><stop offset="0.0491803" stop-color="#0066E3"/><stop offset="0.0655738" stop-color="#0068E3"/><stop offset="0.0819672" stop-color="#006AE4"/><stop offset="0.0983607" stop-color="#006BE4"/><stop offset="0.114754" stop-color="#006DE4"/><stop offset="0.131148" stop-color="#006FE4"/><stop offset="0.147541" stop-color="#0071E5"/><stop offset="0.163934" stop-color="#0072E5"/><stop offset="0.180328" stop-color="#0074E5"/><stop offset="0.196721" stop-color="#0075E5"/><stop offset="0.213115" stop-color="#0077E5"/><stop offset="0.229508" stop-color="#0078E6"/><stop offset="0.245902" stop-color="#007AE6"/><stop offset="0.262295" stop-color="#007BE6"/><stop offset="0.278689" stop-color="#007DE6"/><stop offset="0.295082" stop-color="#007EE6"/><stop offset="0.311475" stop-color="#0080E7"/><stop offset="0.327869" stop-color="#0081E7"/><stop offset="0.344262" stop-color="#0082E7"/><stop offset="0.360656" stop-color="#0084E7"/><stop offset="0.377049" stop-color="#0085E7"/><stop offset="0.393443" stop-color="#0086E7"/><stop offset="0.409836" stop-color="#0087E8"/><stop offset="0.42623" stop-color="#0089E8"/><stop offset="0.442623" stop-color="#008AE8"/><stop offset="0.459016" stop-color="#008BE8"/><stop offset="0.47541" stop-color="#008CE8"/><stop offset="0.491803" stop-color="#008DE8"/><stop offset="0.508197" stop-color="#008EE8"/><stop offset="0.52459" stop-color="#008FE9"/><stop offset="0.540984" stop-color="#0090E9"/><stop offset="0.557377" stop-color="#0091E9"/><stop offset="0.57377" stop-color="#0092E9"/><stop offset="0.590164" stop-color="#0093E9"/><stop offset="0.606557" stop-color="#0094E9"/><stop offset="0.622951" stop-color="#0095E9"/><stop offset="0.639344" stop-color="#0095E9"/><stop offset="0.655738" stop-color="#0096E9"/><stop offset="0.672131" stop-color="#0097EA"/><stop offset="0.688525" stop-color="#0098EA"/><stop offset="0.704918" stop-color="#0098EA"/><stop offset="0.721311" stop-color="#0099EA"/><stop offset="0.737705" stop-color="#0099EA"/><stop offset="0.754098" stop-color="#009AEA"/><stop offset="0.770492" stop-color="#009BEA"/><stop offset="0.786885" stop-color="#009BEA"/><stop offset="0.803279" stop-color="#009CEA"/><stop offset="0.819672" stop-color="#009CEA"/><stop offset="0.836066" stop-color="#009CEA"/><stop offset="0.852459" stop-color="#009DEA"/><stop offset="0.868852" stop-color="#009DEA"/><stop offset="0.885246" stop-color="#009DEA"/><stop offset="0.901639" stop-color="#009EEA"/><stop offset="0.918033" stop-color="#009EEA"/><stop offset="0.934426" stop-color="#009EEA"/><stop offset="0.95082" stop-color="#009EEA"/><stop offset="0.967213" stop-color="#009EEA"/><stop offset="0.983607" stop-color="#009EEA"/><stop offset="1" stop-color="#009FEB"/></linearGradient><linearGradient x1="950" y1="1277" x2="950" y2="985" gradientUnits="userSpaceOnUse" spreadMethod="reflect" id="fill4"><stop offset="0" stop-color="#0061E3"/><stop offset="0.0163934" stop-color="#0062E3"/><stop offset="0.0327869" stop-color="#0064E3"/><stop offset="0.0491803" stop-color="#0066E3"/><stop offset="0.0655738" stop-color="#0068E3"/><stop offset="0.0819672" stop-color="#006AE4"/><stop offset="0.0983607" stop-color="#006BE4"/><stop offset="0.114754" stop-color="#006DE4"/><stop offset="0.131148" stop-color="#006FE4"/><stop offset="0.147541" stop-color="#0071E5"/><stop offset="0.163934" stop-color="#0072E5"/><stop offset="0.180328" stop-color="#0074E5"/><stop offset="0.196721" stop-color="#0075E5"/><stop offset="0.213115" stop-color="#0077E5"/><stop offset="0.229508" stop-color="#0078E6"/><stop offset="0.245902" stop-color="#007AE6"/><stop offset="0.262295" stop-color="#007BE6"/><stop offset="0.278689" stop-color="#007DE6"/><stop offset="0.295082" stop-color="#007EE6"/><stop offset="0.311475" stop-color="#0080E7"/><stop offset="0.327869" stop-color="#0081E7"/><stop offset="0.344262" stop-color="#0082E7"/><stop offset="0.360656" stop-color="#0084E7"/><stop offset="0.377049" stop-color="#0085E7"/><stop offset="0.393443" stop-color="#0086E7"/><stop offset="0.409836" stop-color="#0087E8"/><stop offset="0.42623" stop-color="#0089E8"/><stop offset="0.442623" stop-color="#008AE8"/><stop offset="0.459016" stop-color="#008BE8"/><stop offset="0.47541" stop-color="#008CE8"/><stop offset="0.491803" stop-color="#008DE8"/><stop offset="0.508197" stop-color="#008EE8"/><stop offset="0.52459" stop-color="#008FE9"/><stop offset="0.540984" stop-color="#0090E9"/><stop offset="0.557377" stop-color="#0091E9"/><stop offset="0.57377" stop-color="#0092E9"/><stop offset="0.590164" stop-color="#0093E9"/><stop offset="0.606557" stop-color="#0094E9"/><stop offset="0.622951" stop-color="#0095E9"/><stop offset="0.639344" stop-color="#0095E9"/><stop offset="0.655738" stop-color="#0096E9"/><stop offset="0.672131" stop-color="#0097EA"/><stop offset="0.688525" stop-color="#0098EA"/><stop offset="0.704918" stop-color="#0098EA"/><stop offset="0.721311" stop-color="#0099EA"/><stop offset="0.737705" stop-color="#0099EA"/><stop offset="0.754098" stop-color="#009AEA"/><stop offset="0.770492" stop-color="#009BEA"/><stop offset="0.786885" stop-color="#009BEA"/><stop offset="0.803279" stop-color="#009CEA"/><stop offset="0.819672" stop-color="#009CEA"/><stop offset="0.836066" stop-color="#009CEA"/><stop offset="0.852459" stop-color="#009DEA"/><stop offset="0.868852" stop-color="#009DEA"/><stop offset="0.885246" stop-color="#009DEA"/><stop offset="0.901639" stop-color="#009EEA"/><stop offset="0.918033" stop-color="#009EEA"/><stop offset="0.934426" stop-color="#009EEA"/><stop offset="0.95082" stop-color="#009EEA"/><stop offset="0.967213" stop-color="#009EEA"/><stop offset="0.983607" stop-color="#009EEA"/><stop offset="1" stop-color="#009FEB"/></linearGradient><linearGradient x1="1938" y1="1358" x2="1938" y2="1065" gradientUnits="userSpaceOnUse" spreadMethod="reflect" id="fill5"><stop offset="0" stop-color="#0061E3"/><stop offset="0.0163934" stop-color="#0062E3"/><stop offset="0.0327869" stop-color="#0064E3"/><stop offset="0.0491803" stop-color="#0066E3"/><stop offset="0.0655738" stop-color="#0068E3"/><stop offset="0.0819672" stop-color="#006AE4"/><stop offset="0.0983607" stop-color="#006BE4"/><stop offset="0.114754" stop-color="#006DE4"/><stop offset="0.131148" stop-color="#006FE4"/><stop offset="0.147541" stop-color="#0071E5"/><stop offset="0.163934" stop-color="#0072E5"/><stop offset="0.180328" stop-color="#0074E5"/><stop offset="0.196721" stop-color="#0075E5"/><stop offset="0.213115" stop-color="#0077E5"/><stop offset="0.229508" stop-color="#0078E6"/><stop offset="0.245902" stop-color="#007AE6"/><stop offset="0.262295" stop-color="#007BE6"/><stop offset="0.278689" stop-color="#007DE6"/><stop offset="0.295082" stop-color="#007EE6"/><stop offset="0.311475" stop-color="#0080E7"/><stop offset="0.327869" stop-color="#0081E7"/><stop offset="0.344262" stop-color="#0082E7"/><stop offset="0.360656" stop-color="#0084E7"/><stop offset="0.377049" stop-color="#0085E7"/><stop offset="0.393443" stop-color="#0086E7"/><stop offset="0.409836" stop-color="#0087E8"/><stop offset="0.42623" stop-color="#0089E8"/><stop offset="0.442623" stop-color="#008AE8"/><stop offset="0.459016" stop-color="#008BE8"/><stop offset="0.47541" stop-color="#008CE8"/><stop offset="0.491803" stop-color="#008DE8"/><stop offset="0.508197" stop-color="#008EE8"/><stop offset="0.52459" stop-color="#008FE9"/><stop offset="0.540984" stop-color="#0090E9"/><stop offset="0.557377" stop-color="#0091E9"/><stop offset="0.57377" stop-color="#0092E9"/><stop offset="0.590164" stop-color="#0093E9"/><stop offset="0.606557" stop-color="#0094E9"/><stop offset="0.622951" stop-color="#0095E9"/><stop offset="0.639344" stop-color="#0095E9"/><stop offset="0.655738" stop-color="#0096E9"/><stop offset="0.672131" stop-color="#0097EA"/><stop offset="0.688525" stop-color="#0098EA"/><stop offset="0.704918" stop-color="#0098EA"/><stop offset="0.721311" stop-color="#0099EA"/><stop offset="0.737705" stop-color="#0099EA"/><stop offset="0.754098" stop-color="#009AEA"/><stop offset="0.770492" stop-color="#009BEA"/><stop offset="0.786885" stop-color="#009BEA"/><stop offset="0.803279" stop-color="#009CEA"/><stop offset="0.819672" stop-color="#009CEA"/><stop offset="0.836066" stop-color="#009CEA"/><stop offset="0.852459" stop-color="#009DEA"/><stop offset="0.868852" stop-color="#009DEA"/><stop offset="0.885246" stop-color="#009DEA"/><stop offset="0.901639" stop-color="#009EEA"/><stop offset="0.918033" stop-color="#009EEA"/><stop offset="0.934426" stop-color="#009EEA"/><stop offset="0.95082" stop-color="#009EEA"/><stop offset="0.967213" stop-color="#009EEA"/><stop offset="0.983607" stop-color="#009EEA"/><stop offset="1" stop-color="#009FEB"/></linearGradient></defs><g clip-path="url(#clip0)" transform="translate(-578 -244)"><path d="M1361.08 413.038 1344.95 413.957 1329.67 416.75 1314.42 420.5 1299.96 426.125 1286.41 433.587 1273.66 442.006 1261.78 452.261 1250.77 463.473 1240.59 475.642 1231.24 488.729 1223.6 502.735 1216.82 517.697 1211.71 533.578 1207.48 550.415 1205.77 567.214 1204.94 584.97 1204.94 596.22 1192.22 596.22 1182.04 598.057 1171.83 600.888 1161.65 605.557 1153.17 610.225 1143.86 615.812 1136.22 622.356 1128.57 629.856 1121.8 638.275 1115.86 647.612 1110.75 656.949 1105.64 667.242 1102.27 677.498 1099.74 688.71 1098.03 699.96 1098.03 712.091 1098.03 724.26 1099.74 735.472 1102.27 746.684 1105.64 756.939 1110.75 767.233 1115.86 776.57 1121.8 785.907 1128.57 794.326 1136.22 801.826 1143.86 808.369 1153.17 813.956 1161.65 818.625 1171.83 823.293 1182.04 826.125 1192.22 827.962 1670.78 827.962 1680.96 826.125 1691.14 823.293 1701.32 818.625 1709.83 813.956 1719.14 808.369 1726.78 801.826 1734.43 794.326 1741.2 785.907 1747.14 776.57 1752.25 767.233 1757.32 756.939 1760.73 746.684 1763.26 735.472 1764.97 724.26 1764.97 712.091 1764.97 699.96 1763.26 688.71 1760.73 677.498 1757.32 667.242 1752.25 656.949 1747.14 647.612 1741.2 638.275 1734.43 629.856 1726.78 622.356 1719.14 615.812 1709.83 610.225 1701.32 605.557 1691.14 600.888 1680.96 598.057 1670.78 596.22 1633.46 596.22 1634.3 584.97 1633.46 573.757 1632.59 563.502 1630.06 553.208 1626.65 543.871 1622.41 534.534 1618.18 526.116 1612.23 517.697 1606.29 510.235 1599.52 503.691 1591.87 497.148 1584.23 492.479 1575.75 487.773 1567.28 484.061 1557.93 481.267 1548.58 480.311 1538.4 479.392 1526.52 480.311 1514.64 483.104 1502.76 486.854 1492.58 492.479 1486.64 484.061 1480.7 475.642 1474.76 467.223 1467.98 459.762 1461.21 453.218 1453.56 446.674 1445.08 440.131 1436.57 434.506 1428.1 429.837 1419.62 425.169 1410.27 421.418 1400.96 418.625 1390.78 415.832 1381.44 413.957 1371.26 413.038Z" fill="url(#fill1)" fill-rule="evenodd"/><path d="M1642.5 1018.89C1642.5 998.792 1658.79 982.5 1678.89 982.5L2725.11 982.5C2745.21 982.5 2761.5 998.792 2761.5 1018.89L2761.5 1620.11C2761.5 1640.21 2745.21 1656.5 2725.11 1656.5L1678.89 1656.5C1658.79 1656.5 1642.5 1640.21 1642.5 1620.11Z" stroke="#FFFFFF" stroke-width="4.58333" stroke-miterlimit="8" fill="#C6DFFF" fill-rule="evenodd"/><path d="M1686.5 1052.88C1686.5 1037.2 1699.2 1024.5 1714.88 1024.5L2688.12 1024.5C2703.8 1024.5 2716.5 1037.2 2716.5 1052.88L2716.5 1373.12C2716.5 1388.8 2703.8 1401.5 2688.12 1401.5L1714.88 1401.5C1699.2 1401.5 1686.5 1388.8 1686.5 1373.12Z" stroke="#FFC000" stroke-width="6.875" stroke-linejoin="round" stroke-miterlimit="10" stroke-dasharray="6.875 6.875" fill="#FFFFFF" fill-rule="evenodd"/><text fill="#FFC000" font-family="Poppins SemiBold,Poppins SemiBold_MSFontService,sans-serif" font-weight="600" font-size="50" transform="matrix(1 0 0 1 2252.6 1125)">Allxon</text><text fill="#FFC000" font-family="Poppins SemiBold,Poppins SemiBold_MSFontService,sans-serif" font-weight="600" font-size="50" transform="matrix(1 0 0 1 2421.04 1125)">Octo SDK</text><path d="M2319 1474.33C2319 1459.79 2330.79 1448 2345.33 1448L2650.67 1448C2665.21 1448 2677 1459.79 2677 1474.33L2677 1579.67C2677 1594.21 2665.21 1606 2650.67 1606L2345.33 1606C2330.79 1606 2319 1594.21 2319 1579.67Z" fill="url(#fill2)" fill-rule="evenodd"/><text font-family="Poppins,Poppins_MSFontService,sans-serif" font-weight="400" font-size="46" transform="matrix(1 0 0 1 2410.56 1513)">HW/SW </text><text font-family="Poppins,Poppins_MSFontService,sans-serif" font-weight="400" font-size="46" transform="matrix(1 0 0 1 2398.8 1568)">Modules</text><text font-family="Poppins Medium,Poppins Medium_MSFontService,sans-serif" font-weight="500" font-size="50" transform="matrix(1 0 0 1 1715.17 1548)">Edge device</text><path d="M2324 1205.33C2324 1190.79 2335.79 1179 2350.33 1179L2654.67 1179C2669.21 1179 2681 1190.79 2681 1205.33L2681 1310.67C2681 1325.21 2669.21 1337 2654.67 1337L2350.33 1337C2335.79 1337 2324 1325.21 2324 1310.67Z" fill="url(#fill3)" fill-rule="evenodd"/><text fill="#FFFFFF" font-family="Poppins SemiBold,Poppins SemiBold_MSFontService,sans-serif" font-weight="600" font-size="50" transform="matrix(1 0 0 1 2427.16 1276)">Plugin</text><text fill="#FFFFFF" font-family="Poppins SemiBold,Poppins SemiBold_MSFontService,sans-serif" font-weight="600" font-size="50" transform="matrix(1 0 0 1 1259.95 619)">Allxon</text><text fill="#FFFFFF" font-family="Poppins SemiBold,Poppins SemiBold_MSFontService,sans-serif" font-weight="600" font-size="50" transform="matrix(1 0 0 1 1428.38 619)">Cloud</text><path d="M0 338 0 46.2225C-5.37899e-15 25.3321 16.935 8.39714 37.8254 8.39714L248.46 8.39751 248.46 0 257 13.3718 248.46 26.7435 248.46 18.346 37.8254 18.346C22.4294 18.346 9.94853 30.8269 9.94853 46.2229L9.94853 338Z" fill="#FFC000" fill-rule="evenodd" transform="matrix(-1 0 0 1 1943 695)"/><path d="M0 30.0003 18 0 36.0001 30.0003Z" fill="#FFC000" fill-rule="evenodd" transform="matrix(1.83697e-16 1 1 -1.83697e-16 1667 691)"/><path d="M0 30.0003 17.5 0 35.0001 30.0003Z" fill="#FFC000" fill-rule="evenodd" transform="matrix(1 -1.22465e-16 -1.22465e-16 -1 1921 1061)"/><path d="M739 1033.67C739 1006.79 760.789 985 787.668 985L1112.33 985C1139.21 985 1161 1006.79 1161 1033.67L1161 1228.33C1161 1255.21 1139.21 1277 1112.33 1277L787.668 1277C760.789 1277 739 1255.21 739 1228.33Z" fill="url(#fill4)" fill-rule="evenodd"/><text fill="#FFFFFF" font-family="Poppins SemiBold,Poppins SemiBold_MSFontService,sans-serif" font-weight="600" font-size="50" transform="matrix(1 0 0 1 784.245 1146)">Allxon</text><text fill="#FFFFFF" font-family="Poppins SemiBold,Poppins SemiBold_MSFontService,sans-serif" font-weight="600" font-size="50" transform="matrix(1 0 0 1 964.714 1146)">Portal</text><path d="M940 955 940 741.403C940 720.431 957.001 703.43 977.973 703.43L1189.43 703.43 1189.43 695 1198 708.424 1189.43 721.847 1189.43 713.417 977.973 713.417C962.517 713.417 949.987 725.947 949.987 741.403L949.987 955Z" fill="#FFC000" fill-rule="evenodd"/><path d="M1186 691 1217 709 1186 727Z" fill="#FFC000" fill-rule="evenodd"/><path d="M963 950 945 980 927 950Z" fill="#FFC000" fill-rule="evenodd"/><path d="M1241.5 682.167C1241.5 673.514 1248.51 666.5 1257.17 666.5L1629.83 666.5C1638.49 666.5 1645.5 673.514 1645.5 682.167L1645.5 744.833C1645.5 753.486 1638.49 760.5 1629.83 760.5L1257.17 760.5C1248.51 760.5 1241.5 753.486 1241.5 744.833Z" stroke="#FFC000" stroke-width="6.875" stroke-miterlimit="8" fill="#F2F2F2" fill-rule="evenodd"/><text fill="#3A3A3A" font-family="Poppins,Poppins_MSFontService,sans-serif" font-weight="400" font-size="46" transform="matrix(1 0 0 1 1302.37 727)">MQTT Server</text><rect x="2501" y="1325" width="12" height="104" fill="#FFC000"/><path d="M0 30.0003 17.5 0 35.0001 30.0003Z" fill="#FFC000" fill-rule="evenodd" transform="matrix(1 -1.22465e-16 -1.22465e-16 -1 2489 1444)"/><path d="M2489 1344 2506.5 1313 2524 1344Z" fill="#FFC000" fill-rule="evenodd"/><path d="M1727 1113.83C1727 1086.86 1748.86 1065 1775.83 1065L2100.17 1065C2127.14 1065 2149 1086.86 2149 1113.83L2149 1309.17C2149 1336.14 2127.14 1358 2100.17 1358L1775.83 1358C1748.86 1358 1727 1336.14 1727 1309.17Z" fill="url(#fill5)" fill-rule="evenodd"/><path d="M1762.5 1195.83C1762.5 1181.84 1773.84 1170.5 1787.83 1170.5L2094.17 1170.5C2108.16 1170.5 2119.5 1181.84 2119.5 1195.83L2119.5 1297.17C2119.5 1311.16 2108.16 1322.5 2094.17 1322.5L1787.83 1322.5C1773.84 1322.5 1762.5 1311.16 1762.5 1297.17Z" stroke="#FFC000" stroke-width="6.875" stroke-miterlimit="8" fill="#F2F2F2" fill-rule="evenodd"/><text font-family="Poppins,Poppins_MSFontService,sans-serif" font-weight="400" font-size="46" transform="matrix(1 0 0 1 1811.53 1235)">WebSocket </text><text font-family="Poppins,Poppins_MSFontService,sans-serif" font-weight="400" font-size="46" transform="matrix(1 0 0 1 1867.97 1290)">Server</text><text fill="#FFFFFF" font-family="Poppins SemiBold,Poppins SemiBold_MSFontService,sans-serif" font-weight="600" font-size="50" transform="matrix(1 0 0 1 1778.13 1139)">Allxon</text><text fill="#FFFFFF" font-family="Poppins SemiBold,Poppins SemiBold_MSFontService,sans-serif" font-weight="600" font-size="50" transform="matrix(1 0 0 1 1946.57 1139)">Agent</text><rect x="2159" y="1258" width="156" height="11" fill="#FFC000"/><path d="M0 30.9999 17.5 0 35.0001 30.9999Z" fill="#FFC000" fill-rule="evenodd" transform="matrix(1.83697e-16 1 1 -1.83697e-16 2128 1246)"/><path d="M2310 1246 2340 1263.5 2310 1281Z" fill="#FFC000" fill-rule="evenodd"/></g></svg>