<svg width="3196" height="1214" xmlns="http://www.w3.org/2000/svg" xmlns:xlink="http://www.w3.org/1999/xlink" xml:space="preserve" overflow="hidden"><defs><clipPath id="clip0"><rect x="602" y="698" width="3196" height="1214"/></clipPath><linearGradient x1="1579.5" y1="1008" x2="1579.5" y2="849" gradientUnits="userSpaceOnUse" spreadMethod="reflect" id="fill1"><stop offset="0" stop-color="#0061E3"/><stop offset="0.0163934" stop-color="#0062E3"/><stop offset="0.0327869" stop-color="#0064E3"/><stop offset="0.0491803" stop-color="#0066E3"/><stop offset="0.0655738" stop-color="#0068E3"/><stop offset="0.0819672" stop-color="#006AE4"/><stop offset="0.0983607" stop-color="#006BE4"/><stop offset="0.114754" stop-color="#006DE4"/><stop offset="0.131148" stop-color="#006FE4"/><stop offset="0.147541" stop-color="#0071E5"/><stop offset="0.163934" stop-color="#0072E5"/><stop offset="0.180328" stop-color="#0074E5"/><stop offset="0.196721" stop-color="#0075E5"/><stop offset="0.213115" stop-color="#0077E5"/><stop offset="0.229508" stop-color="#0078E6"/><stop offset="0.245902" stop-color="#007AE6"/><stop offset="0.262295" stop-color="#007BE6"/><stop offset="0.278689" stop-color="#007DE6"/><stop offset="0.295082" stop-color="#007EE6"/><stop offset="0.311475" stop-color="#0080E7"/><stop offset="0.327869" stop-color="#0081E7"/><stop offset="0.344262" stop-color="#0082E7"/><stop offset="0.360656" stop-color="#0084E7"/><stop offset="0.377049" stop-color="#0085E7"/><stop offset="0.393443" stop-color="#0086E7"/><stop offset="0.409836" stop-color="#0087E8"/><stop offset="0.42623" stop-color="#0089E8"/><stop offset="0.442623" stop-color="#008AE8"/><stop offset="0.459016" stop-color="#008BE8"/><stop offset="0.47541" stop-color="#008CE8"/><stop offset="0.491803" stop-color="#008DE8"/><stop offset="0.508197" stop-color="#008EE8"/><stop offset="0.52459" stop-color="#008FE9"/><stop offset="0.540984" stop-color="#0090E9"/><stop offset="0.557377" stop-color="#0091E9"/><stop offset="0.57377" stop-color="#0092E9"/><stop offset="0.590164" stop-color="#0093E9"/><stop offset="0.606557" stop-color="#0094E9"/><stop offset="0.622951" stop-color="#0095E9"/><stop offset="0.639344" stop-color="#0095E9"/><stop offset="0.655738" stop-color="#0096E9"/><stop offset="0.672131" stop-color="#0097EA"/><stop offset="0.688525" stop-color="#0098EA"/><stop offset="0.704918" stop-color="#0098EA"/><stop offset="0.721311" stop-color="#0099EA"/><stop offset="0.737705" stop-color="#0099EA"/><stop offset="0.754098" stop-color="#009AEA"/><stop offset="0.770492" stop-color="#009BEA"/><stop offset="0.786885" stop-color="#009BEA"/><stop offset="0.803279" stop-color="#009CEA"/><stop offset="0.819672" stop-color="#009CEA"/><stop offset="0.836066" stop-color="#009CEA"/><stop offset="0.852459" stop-color="#009DEA"/><stop offset="0.868852" stop-color="#009DEA"/><stop offset="0.885246" stop-color="#009DEA"/><stop offset="0.901639" stop-color="#009EEA"/><stop offset="0.918033" stop-color="#009EEA"/><stop offset="0.934426" stop-color="#009EEA"/><stop offset="0.95082" stop-color="#009EEA"/><stop offset="0.967213" stop-color="#009EEA"/><stop offset="0.983607" stop-color="#009EEA"/><stop offset="1" stop-color="#009FEB"/></linearGradient><linearGradient x1="2785" y1="1008" x2="2785" y2="849" gradientUnits="userSpaceOnUse" spreadMethod="reflect" id="fill2"><stop offset="0" stop-color="#0061E3"/><stop offset="0.0163934" stop-color="#0062E3"/><stop offset="0.0327869" stop-color="#0064E3"/><stop offset="0.0491803" stop-color="#0066E3"/><stop offset="0.0655738" stop-color="#0068E3"/><stop offset="0.0819672" stop-color="#006AE4"/><stop offset="0.0983607" stop-color="#006BE4"/><stop offset="0.114754" stop-color="#006DE4"/><stop offset="0.131148" stop-color="#006FE4"/><stop offset="0.147541" stop-color="#0071E5"/><stop offset="0.163934" stop-color="#0072E5"/><stop offset="0.180328" stop-color="#0074E5"/><stop offset="0.196721" stop-color="#0075E5"/><stop offset="0.213115" stop-color="#0077E5"/><stop offset="0.229508" stop-color="#0078E6"/><stop offset="0.245902" stop-color="#007AE6"/><stop offset="0.262295" stop-color="#007BE6"/><stop offset="0.278689" stop-color="#007DE6"/><stop offset="0.295082" stop-color="#007EE6"/><stop offset="0.311475" stop-color="#0080E7"/><stop offset="0.327869" stop-color="#0081E7"/><stop offset="0.344262" stop-color="#0082E7"/><stop offset="0.360656" stop-color="#0084E7"/><stop offset="0.377049" stop-color="#0085E7"/><stop offset="0.393443" stop-color="#0086E7"/><stop offset="0.409836" stop-color="#0087E8"/><stop offset="0.42623" stop-color="#0089E8"/><stop offset="0.442623" stop-color="#008AE8"/><stop offset="0.459016" stop-color="#008BE8"/><stop offset="0.47541" stop-color="#008CE8"/><stop offset="0.491803" stop-color="#008DE8"/><stop offset="0.508197" stop-color="#008EE8"/><stop offset="0.52459" stop-color="#008FE9"/><stop offset="0.540984" stop-color="#0090E9"/><stop offset="0.557377" stop-color="#0091E9"/><stop offset="0.57377" stop-color="#0092E9"/><stop offset="0.590164" stop-color="#0093E9"/><stop offset="0.606557" stop-color="#0094E9"/><stop offset="0.622951" stop-color="#0095E9"/><stop offset="0.639344" stop-color="#0095E9"/><stop offset="0.655738" stop-color="#0096E9"/><stop offset="0.672131" stop-color="#0097EA"/><stop offset="0.688525" stop-color="#0098EA"/><stop offset="0.704918" stop-color="#0098EA"/><stop offset="0.721311" stop-color="#0099EA"/><stop offset="0.737705" stop-color="#0099EA"/><stop offset="0.754098" stop-color="#009AEA"/><stop offset="0.770492" stop-color="#009BEA"/><stop offset="0.786885" stop-color="#009BEA"/><stop offset="0.803279" stop-color="#009CEA"/><stop offset="0.819672" stop-color="#009CEA"/><stop offset="0.836066" stop-color="#009CEA"/><stop offset="0.852459" stop-color="#009DEA"/><stop offset="0.868852" stop-color="#009DEA"/><stop offset="0.885246" stop-color="#009DEA"/><stop offset="0.901639" stop-color="#009EEA"/><stop offset="0.918033" stop-color="#009EEA"/><stop offset="0.934426" stop-color="#009EEA"/><stop offset="0.95082" stop-color="#009EEA"/><stop offset="0.967213" stop-color="#009EEA"/><stop offset="0.983607" stop-color="#009EEA"/><stop offset="1" stop-color="#009FEB"/></linearGradient></defs><g clip-path="url(#clip0)" transform="translate(-602 -698)"><rect x="1108" y="698" width="2184" height="1214" fill="#FFFFFF"/><rect x="1206" y="744" width="1988" height="1122" fill="#FFFFFF"/><path d="M1401 875.501C1401 860.865 1412.86 849 1427.5 849L1731.5 849C1746.14 849 1758 860.865 1758 875.501L1758 981.499C1758 996.135 1746.14 1008 1731.5 1008L1427.5 1008C1412.86 1008 1401 996.135 1401 981.499Z" fill="url(#fill1)" fill-rule="evenodd"/><text fill="#FFFFFF" font-family="Poppins Medium,Poppins Medium_MSFontService,sans-serif" font-weight="500" font-size="50" transform="matrix(1 0 0 1 1506.27 946)">Plugin</text><path d="M2606 875.5C2606 860.865 2617.86 849 2632.5 849L2937.5 849C2952.14 849 2964 860.865 2964 875.5L2964 981.499C2964 996.135 2952.14 1008 2937.5 1008L2632.5 1008C2617.86 1008 2606 996.135 2606 981.499Z" fill="url(#fill2)" fill-rule="evenodd"/><text fill="#FFFFFF" font-family="Poppins Medium,Poppins Medium_MSFontService,sans-serif" font-weight="500" font-size="50" transform="matrix(1 0 0 1 2713.7 946)">Agent</text><path d="M1580.5 1008.5 1580.5 1723.07" stroke="#0061E3" stroke-width="6.875" stroke-miterlimit="8" fill="none" fill-rule="evenodd"/><path d="M2799.5 1008.5 2799.5 1723.07" stroke="#0061E3" stroke-width="6.875" stroke-miterlimit="8" fill="none" fill-rule="evenodd"/><path d="M1580 1342.84 2775.48 1342.84 2775.48 1353.16 1580 1353.16ZM2770.32 1332.53 2801.26 1348 2770.32 1363.47Z" fill="#0061E3"/><path d="M1580 1146.84 1590.31 1146.84 1590.31 1157.16 1580 1157.16ZM1600.62 1146.84 1610.94 1146.84 1610.94 1157.16 1600.62 1157.16ZM1621.25 1146.84 1631.56 1146.84 1631.56 1157.16 1621.25 1157.16ZM1641.87 1146.84 1652.19 1146.84 1652.19 1157.16 1641.87 1157.16ZM1662.5 1146.84 1672.81 1146.84 1672.81 1157.16 1662.5 1157.16ZM1683.12 1146.84 1693.44 1146.84 1693.44 1157.16 1683.12 1157.16ZM1703.75 1146.84 1714.06 1146.84 1714.06 1157.16 1703.75 1157.16ZM1724.37 1146.84 1734.69 1146.84 1734.69 1157.16 1724.37 1157.16ZM1745 1146.84 1755.31 1146.84 1755.31 1157.16 1745 1157.16ZM1765.62 1146.84 1775.94 1146.84 1775.94 1157.16 1765.62 1157.16ZM1786.25 1146.84 1796.56 1146.84 1796.56 1157.16 1786.25 1157.16ZM1806.87 1146.84 1817.19 1146.84 1817.19 1157.16 1806.87 1157.16ZM1827.5 1146.84 1837.81 1146.84 1837.81 1157.16 1827.5 1157.16ZM1848.12 1146.84 1858.44 1146.84 1858.44 1157.16 1848.12 1157.16ZM1868.75 1146.84 1879.06 1146.84 1879.06 1157.16 1868.75 1157.16ZM1889.37 1146.84 1899.69 1146.84 1899.69 1157.16 1889.37 1157.16ZM1910 1146.84 1920.31 1146.84 1920.31 1157.16 1910 1157.16ZM1930.62 1146.84 1940.94 1146.84 1940.94 1157.16 1930.62 1157.16ZM1951.25 1146.84 1961.56 1146.84 1961.56 1157.16 1951.25 1157.16ZM1971.87 1146.84 1982.19 1146.84 1982.19 1157.16 1971.87 1157.16ZM1992.5 1146.84 2002.81 1146.84 2002.81 1157.16 1992.5 1157.16ZM2013.12 1146.84 2023.44 1146.84 2023.44 1157.16 2013.12 1157.16ZM2033.75 1146.84 2044.06 1146.84 2044.06 1157.16 2033.75 1157.16ZM2054.38 1146.84 2064.69 1146.84 2064.69 1157.16 2054.38 1157.16ZM2075 1146.84 2085.31 1146.84 2085.31 1157.16 2075 1157.16ZM2095.62 1146.84 2105.94 1146.84 2105.94 1157.16 2095.62 1157.16ZM2116.25 1146.84 2126.56 1146.84 2126.56 1157.16 2116.25 1157.16ZM2136.88 1146.84 2147.19 1146.84 2147.19 1157.16 2136.88 1157.16ZM2157.5 1146.84 2167.81 1146.84 2167.81 1157.16 2157.5 1157.16ZM2178.12 1146.84 2188.44 1146.84 2188.44 1157.16 2178.12 1157.16ZM2198.75 1146.84 2209.06 1146.84 2209.06 1157.16 2198.75 1157.16ZM2219.38 1146.84 2229.69 1146.84 2229.69 1157.16 2219.38 1157.16ZM2240 1146.84 2250.31 1146.84 2250.31 1157.16 2240 1157.16ZM2260.62 1146.84 2270.94 1146.84 2270.94 1157.16 2260.62 1157.16ZM2281.25 1146.84 2291.56 1146.84 2291.56 1157.16 2281.25 1157.16ZM2301.88 1146.84 2312.19 1146.84 2312.19 1157.16 2301.88 1157.16ZM2322.5 1146.84 2332.81 1146.84 2332.81 1157.16 2322.5 1157.16ZM2343.12 1146.84 2353.44 1146.84 2353.44 1157.16 2343.12 1157.16ZM2363.75 1146.84 2374.06 1146.84 2374.06 1157.16 2363.75 1157.16ZM2384.38 1146.84 2394.69 1146.84 2394.69 1157.16 2384.38 1157.16ZM2405 1146.84 2415.31 1146.84 2415.31 1157.16 2405 1157.16ZM2425.62 1146.84 2435.94 1146.84 2435.94 1157.16 2425.62 1157.16ZM2446.25 1146.84 2456.56 1146.84 2456.56 1157.16 2446.25 1157.16ZM2466.88 1146.84 2477.19 1146.84 2477.19 1157.16 2466.88 1157.16ZM2487.5 1146.84 2497.81 1146.84 2497.81 1157.16 2487.5 1157.16ZM2508.12 1146.84 2518.44 1146.84 2518.44 1157.16 2508.12 1157.16ZM2528.75 1146.84 2539.06 1146.84 2539.06 1157.16 2528.75 1157.16ZM2549.38 1146.84 2559.69 1146.84 2559.69 1157.16 2549.38 1157.16ZM2570 1146.84 2580.31 1146.84 2580.31 1157.16 2570 1157.16ZM2590.62 1146.84 2600.94 1146.84 2600.94 1157.16 2590.62 1157.16ZM2611.25 1146.84 2621.56 1146.84 2621.56 1157.16 2611.25 1157.16ZM2631.88 1146.84 2642.19 1146.84 2642.19 1157.16 2631.88 1157.16ZM2652.5 1146.84 2662.81 1146.84 2662.81 1157.16 2652.5 1157.16ZM2673.12 1146.84 2683.44 1146.84 2683.44 1157.16 2673.12 1157.16ZM2693.75 1146.84 2704.06 1146.84 2704.06 1157.16 2693.75 1157.16ZM2714.38 1146.84 2724.69 1146.84 2724.69 1157.16 2714.38 1157.16ZM2735 1146.84 2745.31 1146.84 2745.31 1157.16 2735 1157.16ZM2755.62 1146.84 2765.94 1146.84 2765.94 1157.16 2755.62 1157.16ZM2770.32 1136.53 2801.26 1152 2770.32 1167.47Z" fill="#0061E3"/><text fill="#0061E3" font-family="Arial,Arial_MSFontService,sans-serif" font-weight="400" font-size="48" transform="matrix(1 0 0 1 1771.71 1115)">WebSocket Connection to Port  55688</text><text fill="#0061E3" font-family="Arial,Arial_MSFontService,sans-serif" font-weight="400" font-size="48" transform="matrix(1 0 0 1 1942.39 1318)">v2/</text><text fill="#0061E3" font-family="Arial,Arial_MSFontService,sans-serif" font-weight="400" font-size="48" transform="matrix(1 0 0 1 2006.56 1318)">notifyPluginUpdate</text><path d="M1.52371e-06-5.15625 1195.48-5.1559 1195.48 5.1566-1.52371e-06 5.15625ZM1190.32-15.4684 1221.26 0.000360892 1190.32 15.4691Z" fill="#0061E3" transform="matrix(-1 0 0 1 2801.26 1545)"/><text fill="#0061E3" font-family="Arial,Arial_MSFontService,sans-serif" font-weight="400" font-size="48" transform="matrix(1 0 0 1 1876.84 1509)">v2/</text><text fill="#0061E3" font-family="Arial,Arial_MSFontService,sans-serif" font-weight="400" font-size="48" transform="matrix(1 0 0 1 1941.01 1509)">notifyPluginConfigUpdate</text></g></svg>