<svg width="3196" height="937" xmlns="http://www.w3.org/2000/svg" xmlns:xlink="http://www.w3.org/1999/xlink" xml:space="preserve" overflow="hidden"><defs><clipPath id="clip0"><rect x="521" y="694" width="3196" height="937"/></clipPath><linearGradient x1="1516.5" y1="959" x2="1516.5" y2="801" gradientUnits="userSpaceOnUse" spreadMethod="reflect" id="fill1"><stop offset="0" stop-color="#0061E3"/><stop offset="0.0163934" stop-color="#0062E3"/><stop offset="0.0327869" stop-color="#0064E3"/><stop offset="0.0491803" stop-color="#0066E3"/><stop offset="0.0655738" stop-color="#0068E3"/><stop offset="0.0819672" stop-color="#006AE4"/><stop offset="0.0983607" stop-color="#006BE4"/><stop offset="0.114754" stop-color="#006DE4"/><stop offset="0.131148" stop-color="#006FE4"/><stop offset="0.147541" stop-color="#0071E5"/><stop offset="0.163934" stop-color="#0072E5"/><stop offset="0.180328" stop-color="#0074E5"/><stop offset="0.196721" stop-color="#0075E5"/><stop offset="0.213115" stop-color="#0077E5"/><stop offset="0.229508" stop-color="#0078E6"/><stop offset="0.245902" stop-color="#007AE6"/><stop offset="0.262295" stop-color="#007BE6"/><stop offset="0.278689" stop-color="#007DE6"/><stop offset="0.295082" stop-color="#007EE6"/><stop offset="0.311475" stop-color="#0080E7"/><stop offset="0.327869" stop-color="#0081E7"/><stop offset="0.344262" stop-color="#0082E7"/><stop offset="0.360656" stop-color="#0084E7"/><stop offset="0.377049" stop-color="#0085E7"/><stop offset="0.393443" stop-color="#0086E7"/><stop offset="0.409836" stop-color="#0087E8"/><stop offset="0.42623" stop-color="#0089E8"/><stop offset="0.442623" stop-color="#008AE8"/><stop offset="0.459016" stop-color="#008BE8"/><stop offset="0.47541" stop-color="#008CE8"/><stop offset="0.491803" stop-color="#008DE8"/><stop offset="0.508197" stop-color="#008EE8"/><stop offset="0.52459" stop-color="#008FE9"/><stop offset="0.540984" stop-color="#0090E9"/><stop offset="0.557377" stop-color="#0091E9"/><stop offset="0.57377" stop-color="#0092E9"/><stop offset="0.590164" stop-color="#0093E9"/><stop offset="0.606557" stop-color="#0094E9"/><stop offset="0.622951" stop-color="#0095E9"/><stop offset="0.639344" stop-color="#0095E9"/><stop offset="0.655738" stop-color="#0096E9"/><stop offset="0.672131" stop-color="#0097EA"/><stop offset="0.688525" stop-color="#0098EA"/><stop offset="0.704918" stop-color="#0098EA"/><stop offset="0.721311" stop-color="#0099EA"/><stop offset="0.737705" stop-color="#0099EA"/><stop offset="0.754098" stop-color="#009AEA"/><stop offset="0.770492" stop-color="#009BEA"/><stop offset="0.786885" stop-color="#009BEA"/><stop offset="0.803279" stop-color="#009CEA"/><stop offset="0.819672" stop-color="#009CEA"/><stop offset="0.836066" stop-color="#009CEA"/><stop offset="0.852459" stop-color="#009DEA"/><stop offset="0.868852" stop-color="#009DEA"/><stop offset="0.885246" stop-color="#009DEA"/><stop offset="0.901639" stop-color="#009EEA"/><stop offset="0.918033" stop-color="#009EEA"/><stop offset="0.934426" stop-color="#009EEA"/><stop offset="0.95082" stop-color="#009EEA"/><stop offset="0.967213" stop-color="#009EEA"/><stop offset="0.983607" stop-color="#009EEA"/><stop offset="1" stop-color="#009FEB"/></linearGradient><linearGradient x1="2721.5" y1="959" x2="2721.5" y2="801" gradientUnits="userSpaceOnUse" spreadMethod="reflect" id="fill2"><stop offset="0" stop-color="#0061E3"/><stop offset="0.0163934" stop-color="#0062E3"/><stop offset="0.0327869" stop-color="#0064E3"/><stop offset="0.0491803" stop-color="#0066E3"/><stop offset="0.0655738" stop-color="#0068E3"/><stop offset="0.0819672" stop-color="#006AE4"/><stop offset="0.0983607" stop-color="#006BE4"/><stop offset="0.114754" stop-color="#006DE4"/><stop offset="0.131148" stop-color="#006FE4"/><stop offset="0.147541" stop-color="#0071E5"/><stop offset="0.163934" stop-color="#0072E5"/><stop offset="0.180328" stop-color="#0074E5"/><stop offset="0.196721" stop-color="#0075E5"/><stop offset="0.213115" stop-color="#0077E5"/><stop offset="0.229508" stop-color="#0078E6"/><stop offset="0.245902" stop-color="#007AE6"/><stop offset="0.262295" stop-color="#007BE6"/><stop offset="0.278689" stop-color="#007DE6"/><stop offset="0.295082" stop-color="#007EE6"/><stop offset="0.311475" stop-color="#0080E7"/><stop offset="0.327869" stop-color="#0081E7"/><stop offset="0.344262" stop-color="#0082E7"/><stop offset="0.360656" stop-color="#0084E7"/><stop offset="0.377049" stop-color="#0085E7"/><stop offset="0.393443" stop-color="#0086E7"/><stop offset="0.409836" stop-color="#0087E8"/><stop offset="0.42623" stop-color="#0089E8"/><stop offset="0.442623" stop-color="#008AE8"/><stop offset="0.459016" stop-color="#008BE8"/><stop offset="0.47541" stop-color="#008CE8"/><stop offset="0.491803" stop-color="#008DE8"/><stop offset="0.508197" stop-color="#008EE8"/><stop offset="0.52459" stop-color="#008FE9"/><stop offset="0.540984" stop-color="#0090E9"/><stop offset="0.557377" stop-color="#0091E9"/><stop offset="0.57377" stop-color="#0092E9"/><stop offset="0.590164" stop-color="#0093E9"/><stop offset="0.606557" stop-color="#0094E9"/><stop offset="0.622951" stop-color="#0095E9"/><stop offset="0.639344" stop-color="#0095E9"/><stop offset="0.655738" stop-color="#0096E9"/><stop offset="0.672131" stop-color="#0097EA"/><stop offset="0.688525" stop-color="#0098EA"/><stop offset="0.704918" stop-color="#0098EA"/><stop offset="0.721311" stop-color="#0099EA"/><stop offset="0.737705" stop-color="#0099EA"/><stop offset="0.754098" stop-color="#009AEA"/><stop offset="0.770492" stop-color="#009BEA"/><stop offset="0.786885" stop-color="#009BEA"/><stop offset="0.803279" stop-color="#009CEA"/><stop offset="0.819672" stop-color="#009CEA"/><stop offset="0.836066" stop-color="#009CEA"/><stop offset="0.852459" stop-color="#009DEA"/><stop offset="0.868852" stop-color="#009DEA"/><stop offset="0.885246" stop-color="#009DEA"/><stop offset="0.901639" stop-color="#009EEA"/><stop offset="0.918033" stop-color="#009EEA"/><stop offset="0.934426" stop-color="#009EEA"/><stop offset="0.95082" stop-color="#009EEA"/><stop offset="0.967213" stop-color="#009EEA"/><stop offset="0.983607" stop-color="#009EEA"/><stop offset="1" stop-color="#009FEB"/></linearGradient></defs><g clip-path="url(#clip0)" transform="translate(-521 -694)"><rect x="1027" y="694" width="2184" height="937" fill="#FFFFFF"/><path d="M1338 827.334C1338 812.79 1349.79 801 1364.33 801L1668.67 801C1683.21 801 1695 812.79 1695 827.334L1695 932.666C1695 947.21 1683.21 959 1668.67 959L1364.33 959C1349.79 959 1338 947.21 1338 932.666Z" fill="url(#fill1)" fill-rule="evenodd"/><text fill="#FFFFFF" font-family="Poppins Medium,Poppins Medium_MSFontService,sans-serif" font-weight="500" font-size="50" transform="matrix(1 0 0 1 1443.02 898)">Plugin</text><path d="M2543 827.334C2543 812.79 2554.79 801 2569.33 801L2873.67 801C2888.21 801 2900 812.79 2900 827.334L2900 932.666C2900 947.21 2888.21 959 2873.67 959L2569.33 959C2554.79 959 2543 947.21 2543 932.666Z" fill="url(#fill2)" fill-rule="evenodd"/><text fill="#FFFFFF" font-family="Poppins Medium,Poppins Medium_MSFontService,sans-serif" font-weight="500" font-size="50" transform="matrix(1 0 0 1 2650.45 898)">Agent</text><path d="M1516.5 959.5 1516.5 1414.22" stroke="#0061E3" stroke-width="6.875" stroke-miterlimit="8" fill="none" fill-rule="evenodd"/><path d="M2736.5 959.5 2736.5 1414.22" stroke="#0061E3" stroke-width="6.875" stroke-miterlimit="8" fill="none" fill-rule="evenodd"/><path d="M1516 1294.84 2711.48 1294.84 2711.48 1305.16 1516 1305.16ZM2706.32 1284.53 2737.26 1300 2706.32 1315.47Z" fill="#0061E3"/><path d="M1516 1098.84 1526.31 1098.84 1526.31 1109.16 1516 1109.16ZM1536.62 1098.84 1546.94 1098.84 1546.94 1109.16 1536.62 1109.16ZM1557.25 1098.84 1567.56 1098.84 1567.56 1109.16 1557.25 1109.16ZM1577.87 1098.84 1588.19 1098.84 1588.19 1109.16 1577.87 1109.16ZM1598.5 1098.84 1608.81 1098.84 1608.81 1109.16 1598.5 1109.16ZM1619.12 1098.84 1629.44 1098.84 1629.44 1109.16 1619.12 1109.16ZM1639.75 1098.84 1650.06 1098.84 1650.06 1109.16 1639.75 1109.16ZM1660.37 1098.84 1670.69 1098.84 1670.69 1109.16 1660.37 1109.16ZM1681 1098.84 1691.31 1098.84 1691.31 1109.16 1681 1109.16ZM1701.62 1098.84 1711.94 1098.84 1711.94 1109.16 1701.62 1109.16ZM1722.25 1098.84 1732.56 1098.84 1732.56 1109.16 1722.25 1109.16ZM1742.87 1098.84 1753.19 1098.84 1753.19 1109.16 1742.87 1109.16ZM1763.5 1098.84 1773.81 1098.84 1773.81 1109.16 1763.5 1109.16ZM1784.12 1098.84 1794.44 1098.84 1794.44 1109.16 1784.12 1109.16ZM1804.75 1098.84 1815.06 1098.84 1815.06 1109.16 1804.75 1109.16ZM1825.37 1098.84 1835.69 1098.84 1835.69 1109.16 1825.37 1109.16ZM1846 1098.84 1856.31 1098.84 1856.31 1109.16 1846 1109.16ZM1866.62 1098.84 1876.94 1098.84 1876.94 1109.16 1866.62 1109.16ZM1887.25 1098.84 1897.56 1098.84 1897.56 1109.16 1887.25 1109.16ZM1907.87 1098.84 1918.19 1098.84 1918.19 1109.16 1907.87 1109.16ZM1928.5 1098.84 1938.81 1098.84 1938.81 1109.16 1928.5 1109.16ZM1949.12 1098.84 1959.44 1098.84 1959.44 1109.16 1949.12 1109.16ZM1969.75 1098.84 1980.06 1098.84 1980.06 1109.16 1969.75 1109.16ZM1990.37 1098.84 2000.69 1098.84 2000.69 1109.16 1990.37 1109.16ZM2011 1098.84 2021.31 1098.84 2021.31 1109.16 2011 1109.16ZM2031.62 1098.84 2041.94 1098.84 2041.94 1109.16 2031.62 1109.16ZM2052.25 1098.84 2062.56 1098.84 2062.56 1109.16 2052.25 1109.16ZM2072.88 1098.84 2083.19 1098.84 2083.19 1109.16 2072.88 1109.16ZM2093.5 1098.84 2103.81 1098.84 2103.81 1109.16 2093.5 1109.16ZM2114.12 1098.84 2124.44 1098.84 2124.44 1109.16 2114.12 1109.16ZM2134.75 1098.84 2145.06 1098.84 2145.06 1109.16 2134.75 1109.16ZM2155.38 1098.84 2165.69 1098.84 2165.69 1109.16 2155.38 1109.16ZM2176 1098.84 2186.31 1098.84 2186.31 1109.16 2176 1109.16ZM2196.62 1098.84 2206.94 1098.84 2206.94 1109.16 2196.62 1109.16ZM2217.25 1098.84 2227.56 1098.84 2227.56 1109.16 2217.25 1109.16ZM2237.88 1098.84 2248.19 1098.84 2248.19 1109.16 2237.88 1109.16ZM2258.5 1098.84 2268.81 1098.84 2268.81 1109.16 2258.5 1109.16ZM2279.12 1098.84 2289.44 1098.84 2289.44 1109.16 2279.12 1109.16ZM2299.75 1098.84 2310.06 1098.84 2310.06 1109.16 2299.75 1109.16ZM2320.38 1098.84 2330.69 1098.84 2330.69 1109.16 2320.38 1109.16ZM2341 1098.84 2351.31 1098.84 2351.31 1109.16 2341 1109.16ZM2361.62 1098.84 2371.94 1098.84 2371.94 1109.16 2361.62 1109.16ZM2382.25 1098.84 2392.56 1098.84 2392.56 1109.16 2382.25 1109.16ZM2402.88 1098.84 2413.19 1098.84 2413.19 1109.16 2402.88 1109.16ZM2423.5 1098.84 2433.81 1098.84 2433.81 1109.16 2423.5 1109.16ZM2444.12 1098.84 2454.44 1098.84 2454.44 1109.16 2444.12 1109.16ZM2464.75 1098.84 2475.06 1098.84 2475.06 1109.16 2464.75 1109.16ZM2485.38 1098.84 2495.69 1098.84 2495.69 1109.16 2485.38 1109.16ZM2506 1098.84 2516.31 1098.84 2516.31 1109.16 2506 1109.16ZM2526.62 1098.84 2536.94 1098.84 2536.94 1109.16 2526.62 1109.16ZM2547.25 1098.84 2557.56 1098.84 2557.56 1109.16 2547.25 1109.16ZM2567.88 1098.84 2578.19 1098.84 2578.19 1109.16 2567.88 1109.16ZM2588.5 1098.84 2598.81 1098.84 2598.81 1109.16 2588.5 1109.16ZM2609.12 1098.84 2619.44 1098.84 2619.44 1109.16 2609.12 1109.16ZM2629.75 1098.84 2640.06 1098.84 2640.06 1109.16 2629.75 1109.16ZM2650.38 1098.84 2660.69 1098.84 2660.69 1109.16 2650.38 1109.16ZM2671 1098.84 2681.31 1098.84 2681.31 1109.16 2671 1109.16ZM2691.62 1098.84 2701.94 1098.84 2701.94 1109.16 2691.62 1109.16ZM2706.32 1088.53 2737.26 1104 2706.32 1119.47Z" fill="#0061E3"/><text fill="#0061E3" font-family="Arial,Arial_MSFontService,sans-serif" font-weight="400" font-size="48" transform="matrix(1 0 0 1 1708.47 1066)">WebSocket Connection to Port  55688</text><text fill="#0061E3" font-family="Arial,Arial_MSFontService,sans-serif" font-weight="400" font-size="48" transform="matrix(1 0 0 1 1879.15 1269)">v2/</text><text fill="#0061E3" font-family="Arial,Arial_MSFontService,sans-serif" font-weight="400" font-size="48" transform="matrix(1 0 0 1 1943.31 1269)">notifyPluginUpdate</text></g></svg>