<svg width="3196" height="1238" xmlns="http://www.w3.org/2000/svg" xmlns:xlink="http://www.w3.org/1999/xlink" xml:space="preserve" overflow="hidden"><defs><clipPath id="clip0"><rect x="479" y="553" width="3196" height="1238"/></clipPath><linearGradient x1="1474.5" y1="766" x2="1474.5" y2="608" gradientUnits="userSpaceOnUse" spreadMethod="reflect" id="fill1"><stop offset="0" stop-color="#0061E3"/><stop offset="0.0163934" stop-color="#0062E3"/><stop offset="0.0327869" stop-color="#0064E3"/><stop offset="0.0491803" stop-color="#0066E3"/><stop offset="0.0655738" stop-color="#0068E3"/><stop offset="0.0819672" stop-color="#006AE4"/><stop offset="0.0983607" stop-color="#006BE4"/><stop offset="0.114754" stop-color="#006DE4"/><stop offset="0.131148" stop-color="#006FE4"/><stop offset="0.147541" stop-color="#0071E5"/><stop offset="0.163934" stop-color="#0072E5"/><stop offset="0.180328" stop-color="#0074E5"/><stop offset="0.196721" stop-color="#0075E5"/><stop offset="0.213115" stop-color="#0077E5"/><stop offset="0.229508" stop-color="#0078E6"/><stop offset="0.245902" stop-color="#007AE6"/><stop offset="0.262295" stop-color="#007BE6"/><stop offset="0.278689" stop-color="#007DE6"/><stop offset="0.295082" stop-color="#007EE6"/><stop offset="0.311475" stop-color="#0080E7"/><stop offset="0.327869" stop-color="#0081E7"/><stop offset="0.344262" stop-color="#0082E7"/><stop offset="0.360656" stop-color="#0084E7"/><stop offset="0.377049" stop-color="#0085E7"/><stop offset="0.393443" stop-color="#0086E7"/><stop offset="0.409836" stop-color="#0087E8"/><stop offset="0.42623" stop-color="#0089E8"/><stop offset="0.442623" stop-color="#008AE8"/><stop offset="0.459016" stop-color="#008BE8"/><stop offset="0.47541" stop-color="#008CE8"/><stop offset="0.491803" stop-color="#008DE8"/><stop offset="0.508197" stop-color="#008EE8"/><stop offset="0.52459" stop-color="#008FE9"/><stop offset="0.540984" stop-color="#0090E9"/><stop offset="0.557377" stop-color="#0091E9"/><stop offset="0.57377" stop-color="#0092E9"/><stop offset="0.590164" stop-color="#0093E9"/><stop offset="0.606557" stop-color="#0094E9"/><stop offset="0.622951" stop-color="#0095E9"/><stop offset="0.639344" stop-color="#0095E9"/><stop offset="0.655738" stop-color="#0096E9"/><stop offset="0.672131" stop-color="#0097EA"/><stop offset="0.688525" stop-color="#0098EA"/><stop offset="0.704918" stop-color="#0098EA"/><stop offset="0.721311" stop-color="#0099EA"/><stop offset="0.737705" stop-color="#0099EA"/><stop offset="0.754098" stop-color="#009AEA"/><stop offset="0.770492" stop-color="#009BEA"/><stop offset="0.786885" stop-color="#009BEA"/><stop offset="0.803279" stop-color="#009CEA"/><stop offset="0.819672" stop-color="#009CEA"/><stop offset="0.836066" stop-color="#009CEA"/><stop offset="0.852459" stop-color="#009DEA"/><stop offset="0.868852" stop-color="#009DEA"/><stop offset="0.885246" stop-color="#009DEA"/><stop offset="0.901639" stop-color="#009EEA"/><stop offset="0.918033" stop-color="#009EEA"/><stop offset="0.934426" stop-color="#009EEA"/><stop offset="0.95082" stop-color="#009EEA"/><stop offset="0.967213" stop-color="#009EEA"/><stop offset="0.983607" stop-color="#009EEA"/><stop offset="1" stop-color="#009FEB"/></linearGradient><linearGradient x1="2679.5" y1="766" x2="2679.5" y2="608" gradientUnits="userSpaceOnUse" spreadMethod="reflect" id="fill2"><stop offset="0" stop-color="#0061E3"/><stop offset="0.0163934" stop-color="#0062E3"/><stop offset="0.0327869" stop-color="#0064E3"/><stop offset="0.0491803" stop-color="#0066E3"/><stop offset="0.0655738" stop-color="#0068E3"/><stop offset="0.0819672" stop-color="#006AE4"/><stop offset="0.0983607" stop-color="#006BE4"/><stop offset="0.114754" stop-color="#006DE4"/><stop offset="0.131148" stop-color="#006FE4"/><stop offset="0.147541" stop-color="#0071E5"/><stop offset="0.163934" stop-color="#0072E5"/><stop offset="0.180328" stop-color="#0074E5"/><stop offset="0.196721" stop-color="#0075E5"/><stop offset="0.213115" stop-color="#0077E5"/><stop offset="0.229508" stop-color="#0078E6"/><stop offset="0.245902" stop-color="#007AE6"/><stop offset="0.262295" stop-color="#007BE6"/><stop offset="0.278689" stop-color="#007DE6"/><stop offset="0.295082" stop-color="#007EE6"/><stop offset="0.311475" stop-color="#0080E7"/><stop offset="0.327869" stop-color="#0081E7"/><stop offset="0.344262" stop-color="#0082E7"/><stop offset="0.360656" stop-color="#0084E7"/><stop offset="0.377049" stop-color="#0085E7"/><stop offset="0.393443" stop-color="#0086E7"/><stop offset="0.409836" stop-color="#0087E8"/><stop offset="0.42623" stop-color="#0089E8"/><stop offset="0.442623" stop-color="#008AE8"/><stop offset="0.459016" stop-color="#008BE8"/><stop offset="0.47541" stop-color="#008CE8"/><stop offset="0.491803" stop-color="#008DE8"/><stop offset="0.508197" stop-color="#008EE8"/><stop offset="0.52459" stop-color="#008FE9"/><stop offset="0.540984" stop-color="#0090E9"/><stop offset="0.557377" stop-color="#0091E9"/><stop offset="0.57377" stop-color="#0092E9"/><stop offset="0.590164" stop-color="#0093E9"/><stop offset="0.606557" stop-color="#0094E9"/><stop offset="0.622951" stop-color="#0095E9"/><stop offset="0.639344" stop-color="#0095E9"/><stop offset="0.655738" stop-color="#0096E9"/><stop offset="0.672131" stop-color="#0097EA"/><stop offset="0.688525" stop-color="#0098EA"/><stop offset="0.704918" stop-color="#0098EA"/><stop offset="0.721311" stop-color="#0099EA"/><stop offset="0.737705" stop-color="#0099EA"/><stop offset="0.754098" stop-color="#009AEA"/><stop offset="0.770492" stop-color="#009BEA"/><stop offset="0.786885" stop-color="#009BEA"/><stop offset="0.803279" stop-color="#009CEA"/><stop offset="0.819672" stop-color="#009CEA"/><stop offset="0.836066" stop-color="#009CEA"/><stop offset="0.852459" stop-color="#009DEA"/><stop offset="0.868852" stop-color="#009DEA"/><stop offset="0.885246" stop-color="#009DEA"/><stop offset="0.901639" stop-color="#009EEA"/><stop offset="0.918033" stop-color="#009EEA"/><stop offset="0.934426" stop-color="#009EEA"/><stop offset="0.95082" stop-color="#009EEA"/><stop offset="0.967213" stop-color="#009EEA"/><stop offset="0.983607" stop-color="#009EEA"/><stop offset="1" stop-color="#009FEB"/></linearGradient></defs><g clip-path="url(#clip0)" transform="translate(-479 -553)"><rect x="993" y="553" width="2184" height="1238" fill="#FFFFFF"/><path d="M1296 634.334C1296 619.79 1307.79 608 1322.33 608L1626.67 608C1641.21 608 1653 619.79 1653 634.334L1653 739.666C1653 754.21 1641.21 766 1626.67 766L1322.33 766C1307.79 766 1296 754.21 1296 739.666Z" fill="url(#fill1)" fill-rule="evenodd"/><text fill="#FFFFFF" font-family="Poppins Medium,Poppins Medium_MSFontService,sans-serif" font-weight="500" font-size="50" transform="matrix(1 0 0 1 1400.97 705)">Plugin</text><path d="M2501 634.334C2501 619.79 2512.79 608 2527.33 608L2831.67 608C2846.21 608 2858 619.79 2858 634.334L2858 739.666C2858 754.209 2846.21 766 2831.67 766L2527.33 766C2512.79 766 2501 754.209 2501 739.666Z" fill="url(#fill2)" fill-rule="evenodd"/><text fill="#FFFFFF" font-family="Poppins Medium,Poppins Medium_MSFontService,sans-serif" font-weight="500" font-size="50" transform="matrix(1 0 0 1 2608.39 705)">Agent</text><path d="M1474.5 766.5 1474.5 1618.36" stroke="#0061E3" stroke-width="6.875" stroke-miterlimit="8" fill="none" fill-rule="evenodd"/><path d="M2694.5 766.5 2694.5 1618.36" stroke="#0061E3" stroke-width="6.875" stroke-miterlimit="8" fill="none" fill-rule="evenodd"/><path d="M1474 1101.84 2669.48 1101.84 2669.48 1112.16 1474 1112.16ZM2664.32 1091.53 2695.26 1107 2664.32 1122.47Z" fill="#0061E3"/><path d="M1474 905.844 1484.31 905.844 1484.31 916.156 1474 916.156ZM1494.62 905.844 1504.94 905.844 1504.94 916.156 1494.62 916.156ZM1515.25 905.844 1525.56 905.844 1525.56 916.156 1515.25 916.156ZM1535.88 905.844 1546.19 905.844 1546.19 916.156 1535.88 916.156ZM1556.5 905.844 1566.81 905.844 1566.81 916.156 1556.5 916.156ZM1577.12 905.844 1587.44 905.844 1587.44 916.156 1577.12 916.156ZM1597.75 905.844 1608.06 905.844 1608.06 916.156 1597.75 916.156ZM1618.38 905.844 1628.69 905.844 1628.69 916.156 1618.38 916.156ZM1639 905.844 1649.31 905.844 1649.31 916.156 1639 916.156ZM1659.62 905.844 1669.94 905.844 1669.94 916.156 1659.62 916.156ZM1680.25 905.844 1690.56 905.844 1690.56 916.156 1680.25 916.156ZM1700.88 905.844 1711.19 905.844 1711.19 916.156 1700.88 916.156ZM1721.5 905.844 1731.81 905.844 1731.81 916.156 1721.5 916.156ZM1742.12 905.844 1752.44 905.844 1752.44 916.156 1742.12 916.156ZM1762.75 905.844 1773.06 905.844 1773.06 916.156 1762.75 916.156ZM1783.38 905.844 1793.69 905.844 1793.69 916.156 1783.38 916.156ZM1804 905.844 1814.31 905.844 1814.31 916.156 1804 916.156ZM1824.62 905.844 1834.94 905.844 1834.94 916.156 1824.62 916.156ZM1845.25 905.844 1855.56 905.844 1855.56 916.156 1845.25 916.156ZM1865.88 905.844 1876.19 905.844 1876.19 916.156 1865.88 916.156ZM1886.5 905.844 1896.81 905.844 1896.81 916.156 1886.5 916.156ZM1907.12 905.844 1917.44 905.844 1917.44 916.156 1907.12 916.156ZM1927.75 905.844 1938.06 905.844 1938.06 916.156 1927.75 916.156ZM1948.38 905.844 1958.69 905.844 1958.69 916.156 1948.38 916.156ZM1969 905.844 1979.31 905.844 1979.31 916.156 1969 916.156ZM1989.62 905.844 1999.94 905.844 1999.94 916.156 1989.62 916.156ZM2010.25 905.844 2020.56 905.844 2020.56 916.156 2010.25 916.156ZM2030.88 905.844 2041.19 905.844 2041.19 916.156 2030.88 916.156ZM2051.5 905.844 2061.81 905.844 2061.81 916.156 2051.5 916.156ZM2072.12 905.844 2082.44 905.844 2082.44 916.156 2072.12 916.156ZM2092.75 905.844 2103.06 905.844 2103.06 916.156 2092.75 916.156ZM2113.38 905.844 2123.69 905.844 2123.69 916.156 2113.38 916.156ZM2134 905.844 2144.31 905.844 2144.31 916.156 2134 916.156ZM2154.62 905.844 2164.94 905.844 2164.94 916.156 2154.62 916.156ZM2175.25 905.844 2185.56 905.844 2185.56 916.156 2175.25 916.156ZM2195.88 905.844 2206.19 905.844 2206.19 916.156 2195.88 916.156ZM2216.5 905.844 2226.81 905.844 2226.81 916.156 2216.5 916.156ZM2237.12 905.844 2247.44 905.844 2247.44 916.156 2237.12 916.156ZM2257.75 905.844 2268.06 905.844 2268.06 916.156 2257.75 916.156ZM2278.38 905.844 2288.69 905.844 2288.69 916.156 2278.38 916.156ZM2299 905.844 2309.31 905.844 2309.31 916.156 2299 916.156ZM2319.62 905.844 2329.94 905.844 2329.94 916.156 2319.62 916.156ZM2340.25 905.844 2350.56 905.844 2350.56 916.156 2340.25 916.156ZM2360.88 905.844 2371.19 905.844 2371.19 916.156 2360.88 916.156ZM2381.5 905.844 2391.81 905.844 2391.81 916.156 2381.5 916.156ZM2402.12 905.844 2412.44 905.844 2412.44 916.156 2402.12 916.156ZM2422.75 905.844 2433.06 905.844 2433.06 916.156 2422.75 916.156ZM2443.38 905.844 2453.69 905.844 2453.69 916.156 2443.38 916.156ZM2464 905.844 2474.31 905.844 2474.31 916.156 2464 916.156ZM2484.62 905.844 2494.94 905.844 2494.94 916.156 2484.62 916.156ZM2505.25 905.844 2515.56 905.844 2515.56 916.156 2505.25 916.156ZM2525.88 905.844 2536.19 905.844 2536.19 916.156 2525.88 916.156ZM2546.5 905.844 2556.81 905.844 2556.81 916.156 2546.5 916.156ZM2567.12 905.844 2577.44 905.844 2577.44 916.156 2567.12 916.156ZM2587.75 905.844 2598.06 905.844 2598.06 916.156 2587.75 916.156ZM2608.38 905.844 2618.69 905.844 2618.69 916.157 2608.38 916.156ZM2629 905.844 2639.31 905.844 2639.31 916.157 2629 916.157ZM2649.62 905.844 2659.94 905.844 2659.94 916.157 2649.62 916.157ZM2664.32 895.532 2695.26 911 2664.32 926.469Z" fill="#0061E3"/><text fill="#0061E3" font-family="Arial,Arial_MSFontService,sans-serif" font-weight="400" font-size="48" transform="matrix(1 0 0 1 1666.41 874)">WebSocket Connection to Port  55688</text><path d="M1.52371e-06-5.15625 1195.48-5.1559 1195.48 5.1566-1.52371e-06 5.15625ZM1190.32-15.4684 1221.26 0.000360892 1190.32 15.4691Z" fill="#0061E3" transform="matrix(-1 0 0 1 2695.26 1303)"/><text fill="#0061E3" font-family="Arial,Arial_MSFontService,sans-serif" font-weight="400" font-size="48" transform="matrix(1 0 0 1 1778.41 1271)">v2/</text><text fill="#0061E3" font-family="Arial,Arial_MSFontService,sans-serif" font-weight="400" font-size="48" transform="matrix(1 0 0 1 1842.58 1271)">notifyPluginAlarmUpdate</text><path d="M1.52371e-06-5.15625 1195.48-5.1559 1195.48 5.1566-1.52371e-06 5.15625ZM1190.32-15.4684 1221.26 0.000360892 1190.32 15.4691Z" fill="#0061E3" transform="matrix(-1 0 0 1 2695.26 1499)"/><text fill="#0061E3" font-family="Arial,Arial_MSFontService,sans-serif" font-weight="400" font-size="48" transform="matrix(1 0 0 1 1771.54 1465)">v2/</text><text fill="#0061E3" font-family="Arial,Arial_MSFontService,sans-serif" font-weight="400" font-size="48" transform="matrix(1 0 0 1 1835.71 1465)">notifyPluginConfigUpdate</text><rect x="1728" y="1017" width="697" height="75.9999" fill="#FFFFFF"/><text fill="#0061E3" font-family="Arial,Arial_MSFontService,sans-serif" font-weight="400" font-size="48" transform="matrix(1 0 0 1 1837.09 1076)">v2/</text><text fill="#0061E3" font-family="Arial,Arial_MSFontService,sans-serif" font-weight="400" font-size="48" transform="matrix(1 0 0 1 1901.25 1076)">notifyPluginUpdate</text></g></svg>