<svg width="3196" height="1366" xmlns="http://www.w3.org/2000/svg" xmlns:xlink="http://www.w3.org/1999/xlink" xml:space="preserve" overflow="hidden"><defs><clipPath id="clip0"><rect x="602" y="431" width="3196" height="1366"/></clipPath><linearGradient x1="1579.5" y1="753" x2="1579.5" y2="595" gradientUnits="userSpaceOnUse" spreadMethod="reflect" id="fill1"><stop offset="0" stop-color="#0061E3"/><stop offset="0.0163934" stop-color="#0062E3"/><stop offset="0.0327869" stop-color="#0064E3"/><stop offset="0.0491803" stop-color="#0066E3"/><stop offset="0.0655738" stop-color="#0068E3"/><stop offset="0.0819672" stop-color="#006AE4"/><stop offset="0.0983607" stop-color="#006BE4"/><stop offset="0.114754" stop-color="#006DE4"/><stop offset="0.131148" stop-color="#006FE4"/><stop offset="0.147541" stop-color="#0071E5"/><stop offset="0.163934" stop-color="#0072E5"/><stop offset="0.180328" stop-color="#0074E5"/><stop offset="0.196721" stop-color="#0075E5"/><stop offset="0.213115" stop-color="#0077E5"/><stop offset="0.229508" stop-color="#0078E6"/><stop offset="0.245902" stop-color="#007AE6"/><stop offset="0.262295" stop-color="#007BE6"/><stop offset="0.278689" stop-color="#007DE6"/><stop offset="0.295082" stop-color="#007EE6"/><stop offset="0.311475" stop-color="#0080E7"/><stop offset="0.327869" stop-color="#0081E7"/><stop offset="0.344262" stop-color="#0082E7"/><stop offset="0.360656" stop-color="#0084E7"/><stop offset="0.377049" stop-color="#0085E7"/><stop offset="0.393443" stop-color="#0086E7"/><stop offset="0.409836" stop-color="#0087E8"/><stop offset="0.42623" stop-color="#0089E8"/><stop offset="0.442623" stop-color="#008AE8"/><stop offset="0.459016" stop-color="#008BE8"/><stop offset="0.47541" stop-color="#008CE8"/><stop offset="0.491803" stop-color="#008DE8"/><stop offset="0.508197" stop-color="#008EE8"/><stop offset="0.52459" stop-color="#008FE9"/><stop offset="0.540984" stop-color="#0090E9"/><stop offset="0.557377" stop-color="#0091E9"/><stop offset="0.57377" stop-color="#0092E9"/><stop offset="0.590164" stop-color="#0093E9"/><stop offset="0.606557" stop-color="#0094E9"/><stop offset="0.622951" stop-color="#0095E9"/><stop offset="0.639344" stop-color="#0095E9"/><stop offset="0.655738" stop-color="#0096E9"/><stop offset="0.672131" stop-color="#0097EA"/><stop offset="0.688525" stop-color="#0098EA"/><stop offset="0.704918" stop-color="#0098EA"/><stop offset="0.721311" stop-color="#0099EA"/><stop offset="0.737705" stop-color="#0099EA"/><stop offset="0.754098" stop-color="#009AEA"/><stop offset="0.770492" stop-color="#009BEA"/><stop offset="0.786885" stop-color="#009BEA"/><stop offset="0.803279" stop-color="#009CEA"/><stop offset="0.819672" stop-color="#009CEA"/><stop offset="0.836066" stop-color="#009CEA"/><stop offset="0.852459" stop-color="#009DEA"/><stop offset="0.868852" stop-color="#009DEA"/><stop offset="0.885246" stop-color="#009DEA"/><stop offset="0.901639" stop-color="#009EEA"/><stop offset="0.918033" stop-color="#009EEA"/><stop offset="0.934426" stop-color="#009EEA"/><stop offset="0.95082" stop-color="#009EEA"/><stop offset="0.967213" stop-color="#009EEA"/><stop offset="0.983607" stop-color="#009EEA"/><stop offset="1" stop-color="#009FEB"/></linearGradient><linearGradient x1="2785" y1="753" x2="2785" y2="595" gradientUnits="userSpaceOnUse" spreadMethod="reflect" id="fill2"><stop offset="0" stop-color="#0061E3"/><stop offset="0.0163934" stop-color="#0062E3"/><stop offset="0.0327869" stop-color="#0064E3"/><stop offset="0.0491803" stop-color="#0066E3"/><stop offset="0.0655738" stop-color="#0068E3"/><stop offset="0.0819672" stop-color="#006AE4"/><stop offset="0.0983607" stop-color="#006BE4"/><stop offset="0.114754" stop-color="#006DE4"/><stop offset="0.131148" stop-color="#006FE4"/><stop offset="0.147541" stop-color="#0071E5"/><stop offset="0.163934" stop-color="#0072E5"/><stop offset="0.180328" stop-color="#0074E5"/><stop offset="0.196721" stop-color="#0075E5"/><stop offset="0.213115" stop-color="#0077E5"/><stop offset="0.229508" stop-color="#0078E6"/><stop offset="0.245902" stop-color="#007AE6"/><stop offset="0.262295" stop-color="#007BE6"/><stop offset="0.278689" stop-color="#007DE6"/><stop offset="0.295082" stop-color="#007EE6"/><stop offset="0.311475" stop-color="#0080E7"/><stop offset="0.327869" stop-color="#0081E7"/><stop offset="0.344262" stop-color="#0082E7"/><stop offset="0.360656" stop-color="#0084E7"/><stop offset="0.377049" stop-color="#0085E7"/><stop offset="0.393443" stop-color="#0086E7"/><stop offset="0.409836" stop-color="#0087E8"/><stop offset="0.42623" stop-color="#0089E8"/><stop offset="0.442623" stop-color="#008AE8"/><stop offset="0.459016" stop-color="#008BE8"/><stop offset="0.47541" stop-color="#008CE8"/><stop offset="0.491803" stop-color="#008DE8"/><stop offset="0.508197" stop-color="#008EE8"/><stop offset="0.52459" stop-color="#008FE9"/><stop offset="0.540984" stop-color="#0090E9"/><stop offset="0.557377" stop-color="#0091E9"/><stop offset="0.57377" stop-color="#0092E9"/><stop offset="0.590164" stop-color="#0093E9"/><stop offset="0.606557" stop-color="#0094E9"/><stop offset="0.622951" stop-color="#0095E9"/><stop offset="0.639344" stop-color="#0095E9"/><stop offset="0.655738" stop-color="#0096E9"/><stop offset="0.672131" stop-color="#0097EA"/><stop offset="0.688525" stop-color="#0098EA"/><stop offset="0.704918" stop-color="#0098EA"/><stop offset="0.721311" stop-color="#0099EA"/><stop offset="0.737705" stop-color="#0099EA"/><stop offset="0.754098" stop-color="#009AEA"/><stop offset="0.770492" stop-color="#009BEA"/><stop offset="0.786885" stop-color="#009BEA"/><stop offset="0.803279" stop-color="#009CEA"/><stop offset="0.819672" stop-color="#009CEA"/><stop offset="0.836066" stop-color="#009CEA"/><stop offset="0.852459" stop-color="#009DEA"/><stop offset="0.868852" stop-color="#009DEA"/><stop offset="0.885246" stop-color="#009DEA"/><stop offset="0.901639" stop-color="#009EEA"/><stop offset="0.918033" stop-color="#009EEA"/><stop offset="0.934426" stop-color="#009EEA"/><stop offset="0.95082" stop-color="#009EEA"/><stop offset="0.967213" stop-color="#009EEA"/><stop offset="0.983607" stop-color="#009EEA"/><stop offset="1" stop-color="#009FEB"/></linearGradient></defs><g clip-path="url(#clip0)" transform="translate(-602 -431)"><rect x="1108" y="431" width="2184" height="1366" fill="#FFFFFF"/><rect x="1206" y="490" width="1988" height="1236" fill="#FFFFFF"/><path d="M1401 621.334C1401 606.79 1412.79 595 1427.33 595L1731.67 595C1746.21 595 1758 606.79 1758 621.334L1758 726.666C1758 741.21 1746.21 753 1731.67 753L1427.33 753C1412.79 753 1401 741.21 1401 726.666Z" fill="url(#fill1)" fill-rule="evenodd"/><text fill="#FFFFFF" font-family="Poppins Medium,Poppins Medium_MSFontService,sans-serif" font-weight="500" font-size="50" transform="matrix(1 0 0 1 1506.27 692)">Plugin</text><path d="M2606 621.334C2606 606.79 2617.79 595 2632.33 595L2937.67 595C2952.21 595 2964 606.79 2964 621.334L2964 726.666C2964 741.21 2952.21 753 2937.67 753L2632.33 753C2617.79 753 2606 741.21 2606 726.666Z" fill="url(#fill2)" fill-rule="evenodd"/><text fill="#FFFFFF" font-family="Poppins Medium,Poppins Medium_MSFontService,sans-serif" font-weight="500" font-size="50" transform="matrix(1 0 0 1 2713.7 692)">Agent</text><path d="M1580.5 753.5 1580.5 1605.36" stroke="#0061E3" stroke-width="6.875" stroke-miterlimit="8" fill="none" fill-rule="evenodd"/><path d="M2799.5 753.5 2799.5 1605.36" stroke="#0061E3" stroke-width="6.875" stroke-miterlimit="8" fill="none" fill-rule="evenodd"/><path d="M1580 1088.84 2775.48 1088.84 2775.48 1099.16 1580 1099.16ZM2770.32 1078.53 2801.26 1094 2770.32 1109.47Z" fill="#0061E3"/><path d="M1580 892.844 1590.31 892.844 1590.31 903.156 1580 903.156ZM1600.62 892.844 1610.94 892.844 1610.94 903.156 1600.62 903.156ZM1621.25 892.844 1631.56 892.844 1631.56 903.156 1621.25 903.156ZM1641.87 892.844 1652.19 892.844 1652.19 903.156 1641.87 903.156ZM1662.5 892.844 1672.81 892.844 1672.81 903.156 1662.5 903.156ZM1683.12 892.844 1693.44 892.844 1693.44 903.156 1683.12 903.156ZM1703.75 892.844 1714.06 892.844 1714.06 903.156 1703.75 903.156ZM1724.37 892.844 1734.69 892.844 1734.69 903.156 1724.37 903.156ZM1745 892.844 1755.31 892.844 1755.31 903.156 1745 903.156ZM1765.62 892.844 1775.94 892.844 1775.94 903.156 1765.62 903.156ZM1786.25 892.844 1796.56 892.844 1796.56 903.156 1786.25 903.156ZM1806.87 892.844 1817.19 892.844 1817.19 903.156 1806.87 903.156ZM1827.5 892.844 1837.81 892.844 1837.81 903.156 1827.5 903.156ZM1848.12 892.844 1858.44 892.844 1858.44 903.156 1848.12 903.156ZM1868.75 892.844 1879.06 892.844 1879.06 903.156 1868.75 903.156ZM1889.37 892.844 1899.69 892.844 1899.69 903.156 1889.37 903.156ZM1910 892.844 1920.31 892.844 1920.31 903.156 1910 903.156ZM1930.62 892.844 1940.94 892.844 1940.94 903.156 1930.62 903.156ZM1951.25 892.844 1961.56 892.844 1961.56 903.156 1951.25 903.156ZM1971.87 892.844 1982.19 892.844 1982.19 903.156 1971.87 903.156ZM1992.5 892.844 2002.81 892.844 2002.81 903.156 1992.5 903.156ZM2013.12 892.844 2023.44 892.844 2023.44 903.156 2013.12 903.156ZM2033.75 892.844 2044.06 892.844 2044.06 903.156 2033.75 903.156ZM2054.38 892.844 2064.69 892.844 2064.69 903.156 2054.38 903.156ZM2075 892.844 2085.31 892.844 2085.31 903.156 2075 903.156ZM2095.62 892.844 2105.94 892.844 2105.94 903.156 2095.62 903.156ZM2116.25 892.844 2126.56 892.844 2126.56 903.156 2116.25 903.156ZM2136.88 892.844 2147.19 892.844 2147.19 903.156 2136.88 903.156ZM2157.5 892.844 2167.81 892.844 2167.81 903.156 2157.5 903.156ZM2178.12 892.844 2188.44 892.844 2188.44 903.156 2178.12 903.156ZM2198.75 892.844 2209.06 892.844 2209.06 903.156 2198.75 903.156ZM2219.38 892.844 2229.69 892.844 2229.69 903.156 2219.38 903.156ZM2240 892.844 2250.31 892.844 2250.31 903.156 2240 903.156ZM2260.62 892.844 2270.94 892.844 2270.94 903.156 2260.62 903.156ZM2281.25 892.844 2291.56 892.844 2291.56 903.156 2281.25 903.156ZM2301.88 892.844 2312.19 892.844 2312.19 903.156 2301.88 903.156ZM2322.5 892.844 2332.81 892.844 2332.81 903.156 2322.5 903.156ZM2343.12 892.844 2353.44 892.844 2353.44 903.156 2343.12 903.156ZM2363.75 892.844 2374.06 892.844 2374.06 903.156 2363.75 903.156ZM2384.38 892.844 2394.69 892.844 2394.69 903.156 2384.38 903.156ZM2405 892.844 2415.31 892.844 2415.31 903.156 2405 903.156ZM2425.62 892.844 2435.94 892.844 2435.94 903.156 2425.62 903.156ZM2446.25 892.844 2456.56 892.844 2456.56 903.156 2446.25 903.156ZM2466.88 892.844 2477.19 892.844 2477.19 903.156 2466.88 903.156ZM2487.5 892.844 2497.81 892.844 2497.81 903.156 2487.5 903.156ZM2508.12 892.844 2518.44 892.844 2518.44 903.156 2508.12 903.156ZM2528.75 892.844 2539.06 892.844 2539.06 903.156 2528.75 903.156ZM2549.38 892.844 2559.69 892.844 2559.69 903.156 2549.38 903.156ZM2570 892.844 2580.31 892.844 2580.31 903.156 2570 903.156ZM2590.62 892.844 2600.94 892.844 2600.94 903.156 2590.62 903.156ZM2611.25 892.844 2621.56 892.844 2621.56 903.156 2611.25 903.156ZM2631.88 892.844 2642.19 892.844 2642.19 903.156 2631.88 903.156ZM2652.5 892.844 2662.81 892.844 2662.81 903.156 2652.5 903.156ZM2673.12 892.844 2683.44 892.844 2683.44 903.156 2673.12 903.156ZM2693.75 892.844 2704.06 892.844 2704.06 903.156 2693.75 903.156ZM2714.38 892.844 2724.69 892.844 2724.69 903.156 2714.38 903.156ZM2735 892.844 2745.31 892.844 2745.31 903.156 2735 903.156ZM2755.62 892.844 2765.94 892.844 2765.94 903.156 2755.62 903.156ZM2770.32 882.531 2801.26 898 2770.32 913.469Z" fill="#0061E3"/><text fill="#0061E3" font-family="Arial,Arial_MSFontService,sans-serif" font-weight="400" font-size="48" transform="matrix(1 0 0 1 1771.71 861)">WebSocket Connection to Port  55688</text><text fill="#0061E3" font-family="Arial,Arial_MSFontService,sans-serif" font-weight="400" font-size="48" transform="matrix(1 0 0 1 1942.39 1063)">v2/</text><text fill="#0061E3" font-family="Arial,Arial_MSFontService,sans-serif" font-weight="400" font-size="48" transform="matrix(1 0 0 1 2006.56 1063)">notifyPluginUpdate</text><path d="M1.52371e-06-5.15625 1195.48-5.1559 1195.48 5.1566-1.52371e-06 5.15625ZM1190.32-15.4684 1221.26 0.000360892 1190.32 15.4691Z" fill="#0061E3" transform="matrix(-1 0 0 1 2801.26 1290)"/><text fill="#0061E3" font-family="Arial,Arial_MSFontService,sans-serif" font-weight="400" font-size="48" transform="matrix(1 0 0 1 1883.72 1254)">v2/</text><text fill="#0061E3" font-family="Arial,Arial_MSFontService,sans-serif" font-weight="400" font-size="48" transform="matrix(1 0 0 1 1947.89 1254)">notifyPluginAlarmUpdate</text><path d="M1580 1480.84 2775.48 1480.84 2775.48 1491.16 1580 1491.16ZM2770.32 1470.53 2801.26 1486 2770.32 1501.47Z" fill="#0061E3"/><text fill="#0061E3" font-family="Arial,Arial_MSFontService,sans-serif" font-weight="400" font-size="48" transform="matrix(1 0 0 1 1975.1 1448)">v2/</text><text fill="#0061E3" font-family="Arial,Arial_MSFontService,sans-serif" font-weight="400" font-size="48" transform="matrix(1 0 0 1 2039.27 1448)">notifyPluginAlert</text></g></svg>