<svg width="4197" height="633" xmlns="http://www.w3.org/2000/svg" xmlns:xlink="http://www.w3.org/1999/xlink" xml:space="preserve" overflow="hidden"><defs><clipPath id="clip0"><rect x="92" y="1110" width="4197" height="633"/></clipPath></defs><g clip-path="url(#clip0)" transform="translate(-92 -1110)"><rect x="92.0001" y="1110" width="4197" height="633" fill="#FFFFFF"/><path d="M733 1382 3593 1382" stroke="#0049AA" stroke-width="13.75" stroke-miterlimit="8" fill="none" fill-rule="evenodd"/><text font-family="Arial,Arial_MSFontService,sans-serif" font-weight="400" font-size="83" transform="matrix(1 0 0 1 2935.6 1253)">Monthly Listing Date</text><path d="M3286.59 1406.36 3274.25 1412.42 3272.23 1408.3 3284.57 1402.25ZM3269.88 1414.29 3257.13 1419.43 3255.41 1415.18 3268.17 1410.04ZM3252.67 1420.96 3239.65 1425.38 3238.18 1421.04 3251.2 1416.62ZM3235.19 1426.77 3222 1430.65 3220.7 1426.26 3233.89 1422.37ZM3217.6 1431.95 3216.92 1432.15 3204.2 1435.38 3203.07 1430.94 3215.75 1427.72 3215.66 1427.74 3216.31 1427.55ZM3199.75 1436.51 3193.47 1438.1 3186.32 1439.71 3185.31 1435.24 3192.43 1433.64 3192.37 1433.65 3198.63 1432.07ZM3181.85 1440.72 3168.43 1443.74 3167.43 1439.26 3180.84 1436.25ZM3163.9 1444.67 3150.42 1447.4 3149.51 1442.91 3162.99 1440.18ZM3145.93 1448.31 3140.06 1449.5 3132.37 1450.89 3131.56 1446.38 3139.22 1444.99 3139.17 1445 3145.02 1443.82ZM3127.86 1451.7 3114.33 1454.14 3113.52 1449.63 3127.05 1447.19ZM3109.78 1454.95 3096.21 1457.16 3095.47 1452.64 3109.04 1450.43ZM3091.68 1457.9 3078.29 1460.08 3078.08 1460.11 3077.41 1455.57 3077.61 1455.55 3077.57 1455.55 3090.95 1453.37ZM3073.54 1460.77 3059.94 1462.76 3059.27 1458.23 3072.88 1456.24ZM3055.4 1463.43 3044.5 1465.02 3041.76 1465.39 3041.16 1460.84 3043.88 1460.48 3043.86 1460.48 3054.74 1458.89ZM3037.22 1465.99 3023.59 1467.81 3022.98 1463.27 3036.61 1461.45ZM3019.05 1468.42 3008.91 1469.77 3005.38 1470.2 3004.83 1465.65 3008.35 1465.22 3008.32 1465.23 3018.44 1463.88ZM3000.83 1470.75 2987.18 1472.39 2986.63 1467.84 3000.28 1466.2ZM2982.63 1472.94 2971.58 1474.28 2968.96 1474.57 2968.45 1470.01 2971.06 1469.72 2971.04 1469.72 2982.08 1468.39ZM2964.4 1475.07 2950.73 1476.58 2950.23 1472.03 2963.9 1470.51ZM2946.18 1477.09 2932.55 1478.59 2932.49 1478.6 2932.03 1474.04 2932.08 1474.03 2932.06 1474.03 2945.67 1472.53ZM2927.93 1479.05 2914.25 1480.43 2913.79 1475.86 2927.47 1474.49ZM2909.68 1480.88 2896 1482.25 2895.55 1477.69 2909.23 1476.32ZM2891.42 1482.71 2877.73 1483.95 2877.31 1479.38 2891.01 1478.14ZM2873.16 1484.36 2859.47 1485.6 2859.05 1481.03 2872.75 1479.79ZM2854.9 1486.01 2849.82 1486.47 2841.18 1487.18 2840.81 1482.61 2849.44 1481.9 2849.42 1481.91 2854.49 1481.45ZM2836.62 1487.55 2822.91 1488.67 2822.54 1484.11 2836.24 1482.98ZM2818.34 1489.05 2806.3 1490.04 2804.62 1490.16 2804.29 1485.59 2805.96 1485.46 2805.94 1485.47 2817.97 1484.48ZM2800.04 1490.49 2786.33 1491.48 2786 1486.91 2799.71 1485.92ZM2781.76 1491.81 2768.04 1492.81 2767.71 1488.23 2781.43 1487.24ZM2763.47 1493.14 2761.41 1493.29 2749.74 1494.06 2749.44 1489.49 2761.1 1488.71 2761.08 1488.71 2763.14 1488.57ZM2745.17 1494.37 2731.45 1495.28 2731.14 1490.7 2744.86 1489.79ZM2726.88 1495.58 2715.33 1496.35 2713.14 1496.48 2712.87 1491.9 2715.05 1491.77 2715.04 1491.78 2726.57 1491.01ZM2708.56 1496.74 2694.83 1497.54 2694.57 1492.97 2708.29 1492.17ZM2690.26 1497.81 2676.53 1498.61 2676.26 1494.03 2689.99 1493.23ZM2671.95 1498.87 2668 1499.1 2658.21 1499.61 2657.97 1495.03 2667.76 1494.52 2667.74 1494.52 2671.69 1494.3ZM2653.63 1499.84 2639.9 1500.55 2639.66 1495.98 2653.4 1495.27ZM2635.32 1500.79 2621.59 1501.5 2621.36 1496.92 2635.09 1496.21ZM2617 1501.72 2603.26 1502.33 2603.06 1497.75 2616.79 1497.14ZM2598.68 1502.53 2584.95 1503.14 2584.74 1498.56 2598.48 1497.95ZM2580.37 1503.34 2570.16 1503.79 2566.62 1503.93 2566.44 1499.35 2569.97 1499.21 2569.96 1499.21 2580.16 1498.76ZM2562.04 1504.1 2548.3 1504.63 2548.12 1500.05 2561.86 1499.52ZM2543.72 1504.81 2529.98 1505.34 2529.8 1500.76 2543.54 1500.23ZM2525.4 1505.51 2519.83 1505.73 2511.63 1505.96 2511.5 1501.38 2519.68 1501.15 2519.66 1501.15 2525.22 1500.93ZM2507.05 1506.09 2493.3 1506.48 2493.17 1501.9 2506.92 1501.51ZM2488.72 1506.61 2474.98 1507 2474.85 1502.42 2488.59 1502.03ZM2470.4 1507.14 2456.65 1507.53 2456.52 1502.94 2470.27 1502.55ZM2452.07 1507.66 2438.33 1508.05 2438.2 1503.47 2451.94 1503.08ZM2433.75 1508.18 2420 1508.57 2419.87 1503.99 2433.62 1503.6ZM2415.39 1508.69 2401.64 1508.91 2401.57 1504.33 2415.32 1504.1ZM2397.06 1508.99 2383.31 1509.22 2383.24 1504.63 2396.99 1504.41ZM2378.73 1509.29 2364.98 1509.52 2364.91 1504.94 2378.65 1504.71ZM2360.4 1509.6 2346.65 1509.82 2346.58 1505.24 2360.32 1505.01ZM2342.07 1509.9 2328.32 1510.13 2328.24 1505.54 2341.99 1505.32ZM2323.74 1510.2 2310.71 1510.42 2309.96 1510.42 2309.94 1505.84 2310.68 1505.83 2310.65 1505.83 2323.66 1505.62ZM2305.38 1510.44 2291.63 1510.49 2291.61 1505.91 2305.36 1505.85ZM2287.04 1510.51 2273.29 1510.57 2273.28 1505.98 2287.03 1505.93ZM2268.71 1510.59 2254.96 1510.64 2254.94 1506.06 2268.69 1506ZM2250.38 1510.66 2236.63 1510.72 2236.61 1506.13 2250.36 1506.08ZM2232.04 1510.74 2218.29 1510.79 2218.28 1506.21 2232.03 1506.15ZM2213.71 1510.81 2202.68 1510.85 2199.93 1510.83 2199.97 1506.25 2202.71 1506.27 2202.68 1506.27 2213.69 1506.23ZM2195.35 1510.79 2181.6 1510.67 2181.64 1506.09 2195.39 1506.21ZM2177.02 1510.63 2163.27 1510.52 2163.31 1505.93 2177.06 1506.05ZM2158.68 1510.48 2144.94 1510.36 2144.97 1505.78 2158.72 1505.89ZM2140.35 1510.32 2126.6 1510.2 2126.64 1505.62 2140.39 1505.74ZM2122.02 1510.16 2108.27 1510.05 2108.31 1505.46 2122.06 1505.58ZM2103.69 1510.01 2093.22 1509.92 2089.91 1509.85 2090 1505.27 2093.3 1505.33 2093.27 1505.33 2103.73 1505.42ZM2085.33 1509.76 2071.58 1509.48 2071.67 1504.89 2085.42 1505.17ZM2067 1509.38 2053.25 1509.1 2053.34 1504.52 2067.09 1504.8ZM2048.67 1509.01 2034.92 1508.73 2035.02 1504.14 2048.76 1504.43ZM2030.34 1508.63 2016.59 1508.35 2016.69 1503.77 2030.43 1504.05ZM2012.01 1508.26 1998.26 1507.98 1998.36 1503.4 2012.1 1503.68ZM1993.68 1507.89 1982.94 1507.67 1979.91 1507.58 1980.05 1503 1983.07 1503.08 1983.05 1503.08 1993.77 1503.3ZM1975.33 1507.44 1961.59 1507.04 1961.72 1502.45 1975.47 1502.86ZM1957.01 1506.9 1944.8 1506.54 1943.25 1506.49 1943.41 1501.91 1944.95 1501.96 1944.94 1501.96 1957.14 1502.32ZM1938.67 1506.34 1924.93 1505.88 1925.08 1501.3 1938.83 1501.76ZM1920.35 1505.73 1907.17 1505.29 1906.59 1505.27 1906.77 1500.69 1907.34 1500.71 1907.33 1500.71 1920.5 1501.15ZM1902.02 1505.09 1888.28 1504.56 1888.45 1499.98 1902.19 1500.51ZM1883.7 1504.38 1870.15 1503.85 1869.94 1503.84 1870.15 1499.26 1870.35 1499.27 1870.34 1499.27 1883.87 1499.8ZM1865.36 1503.64 1851.63 1503.03 1851.83 1498.45 1865.57 1499.06ZM1847.05 1502.82 1833.71 1502.23 1833.31 1502.21 1833.52 1497.63 1833.91 1497.65 1847.25 1498.24ZM1828.73 1501.99 1814.99 1501.35 1815.21 1496.77 1828.94 1497.41ZM1810.42 1501.13 1797.89 1500.54 1796.67 1500.47 1796.91 1495.9 1798.12 1495.96 1798.11 1495.96 1810.63 1496.55ZM1792.09 1500.23 1778.36 1499.5 1778.6 1494.92 1792.33 1495.65ZM1773.78 1499.25 1762.68 1498.66 1760.04 1498.51 1760.31 1493.93 1762.95 1494.09 1762.93 1494.09 1774.03 1494.68ZM1755.46 1498.23 1741.74 1497.41 1742.01 1492.84 1755.74 1493.66ZM1737.16 1497.14 1728.18 1496.6 1723.43 1496.3 1723.72 1491.73 1728.45 1492.03 1737.44 1492.56ZM1718.86 1496.01 1705.13 1495.15 1705.42 1490.58 1719.14 1491.44ZM1700.56 1494.86 1694.35 1494.47 1686.82 1493.95 1687.14 1489.38 1694.66 1489.9 1694.64 1489.9 1700.85 1490.29ZM1682.25 1493.63 1668.54 1492.67 1668.85 1488.1 1682.57 1489.06ZM1663.96 1492.35 1661.21 1492.16 1650.24 1491.33 1650.58 1486.76 1661.55 1487.59 1661.53 1487.59 1664.28 1487.78ZM1645.67 1490.99 1631.96 1489.95 1632.3 1485.38 1646.01 1486.42ZM1627.37 1489.6 1613.67 1488.49 1614.04 1483.92 1627.74 1485.03ZM1609.1 1488.12 1597.24 1487.16 1595.38 1486.99 1595.79 1482.43 1597.64 1482.59 1597.62 1482.59 1609.47 1483.55ZM1590.81 1486.58 1577.12 1485.36 1577.53 1480.79 1591.22 1482.02ZM1572.55 1484.95 1566.48 1484.41 1558.85 1483.69 1559.28 1479.13 1566.9 1479.84 1566.89 1479.84 1572.96 1480.39ZM1554.29 1483.26 1540.6 1481.98 1541.03 1477.42 1554.72 1478.7ZM1536.02 1481.55 1522.34 1480.17 1522.8 1475.61 1536.48 1476.99ZM1517.78 1479.71 1507.32 1478.65 1504.08 1478.3 1504.58 1473.75 1507.81 1474.1 1507.79 1474.09 1518.24 1475.15ZM1499.53 1477.81 1485.86 1476.33 1486.35 1471.77 1500.02 1473.25ZM1481.3 1475.83 1479.06 1475.59 1467.62 1474.26 1468.15 1469.71 1479.58 1471.04 1479.56 1471.03 1481.79 1471.28ZM1463.07 1473.73 1451.66 1472.4 1449.39 1472.12 1449.96 1467.57 1452.22 1467.85 1452.2 1467.85 1463.6 1469.18ZM1444.85 1471.55 1431.2 1469.84 1431.77 1465.29 1445.42 1467ZM1426.65 1469.27 1425.21 1469.09 1413.01 1467.47 1413.61 1462.93 1425.8 1464.54 1425.78 1464.54 1427.22 1464.72ZM1408.46 1466.87 1399.69 1465.71 1394.82 1465.01 1395.46 1460.47 1400.32 1461.17 1400.3 1461.17 1409.06 1462.33ZM1390.28 1464.36 1376.67 1462.42 1377.31 1457.88 1390.93 1459.83ZM1372.11 1461.73 1358.52 1459.64 1359.22 1455.11 1372.81 1457.2ZM1353.99 1458.95 1351.57 1458.58 1340.39 1456.71 1341.15 1452.19 1352.31 1454.05 1352.29 1454.05 1354.69 1454.42ZM1335.87 1455.96 1329.05 1454.82 1322.3 1453.62 1323.1 1449.11 1329.84 1450.31 1329.81 1450.3 1336.63 1451.44ZM1317.78 1452.82 1307.59 1451 1304.23 1450.37 1305.08 1445.86 1308.43 1446.5 1308.4 1446.49 1318.59 1448.31ZM1299.73 1449.51 1287.12 1447.12 1286.18 1446.93 1287.11 1442.44 1288.03 1442.63 1287.99 1442.62 1300.58 1445.01ZM1281.69 1446 1268.23 1443.21 1269.16 1438.72 1282.62 1441.51ZM1263.72 1442.2 1250.31 1439.16 1251.32 1434.69 1264.73 1437.73ZM1245.81 1438.06 1232.49 1434.78 1232.42 1434.76 1233.6 1430.33 1233.65 1430.35 1233.61 1430.34 1246.91 1433.61ZM1227.99 1433.58 1216.56 1430.52 1214.66 1429.95 1215.97 1425.56 1217.84 1426.12 1217.78 1426.1 1229.17 1429.15ZM1210.27 1428.64 1201.78 1426.11 1197.05 1424.39 1198.62 1420.09 1203.28 1421.78 1203.15 1421.74 1211.58 1424.25ZM1190.44 1444.06 1156.3 1405.84 1207.36 1401.47Z" fill="#7F7F7F"/><text font-family="Arial,Arial_MSFontService,sans-serif" font-weight="400" font-size="83" transform="matrix(1 0 0 1 2090.36 1660)">3 weeks</text><text font-family="Arial,Arial_MSFontService,sans-serif" font-weight="400" font-size="83" transform="matrix(1 0 0 1 596.267 1253)">Plugin Submission Deadline</text><path d="M0 0 0.000360892 145.814" stroke="#0061E3" stroke-width="10.3125" stroke-miterlimit="8" fill="none" fill-rule="evenodd" transform="matrix(-1 0 0 1 3311 1309)"/><path d="M1108 1309 1108 1454.81" stroke="#0061E3" stroke-width="10.3125" stroke-miterlimit="8" fill="none" fill-rule="evenodd"/></g></svg>