<svg width="3197" height="1373" xmlns="http://www.w3.org/2000/svg" xmlns:xlink="http://www.w3.org/1999/xlink" xml:space="preserve" overflow="hidden"><defs><clipPath id="clip0"><rect x="498" y="905" width="3197" height="1373"/></clipPath><linearGradient x1="1476.5" y1="1221" x2="1476.5" y2="1063" gradientUnits="userSpaceOnUse" spreadMethod="reflect" id="fill1"><stop offset="0" stop-color="#0061E3"/><stop offset="0.0163934" stop-color="#0062E3"/><stop offset="0.0327869" stop-color="#0064E3"/><stop offset="0.0491803" stop-color="#0066E3"/><stop offset="0.0655738" stop-color="#0068E3"/><stop offset="0.0819672" stop-color="#006AE4"/><stop offset="0.0983607" stop-color="#006BE4"/><stop offset="0.114754" stop-color="#006DE4"/><stop offset="0.131148" stop-color="#006FE4"/><stop offset="0.147541" stop-color="#0071E5"/><stop offset="0.163934" stop-color="#0072E5"/><stop offset="0.180328" stop-color="#0074E5"/><stop offset="0.196721" stop-color="#0075E5"/><stop offset="0.213115" stop-color="#0077E5"/><stop offset="0.229508" stop-color="#0078E6"/><stop offset="0.245902" stop-color="#007AE6"/><stop offset="0.262295" stop-color="#007BE6"/><stop offset="0.278689" stop-color="#007DE6"/><stop offset="0.295082" stop-color="#007EE6"/><stop offset="0.311475" stop-color="#0080E7"/><stop offset="0.327869" stop-color="#0081E7"/><stop offset="0.344262" stop-color="#0082E7"/><stop offset="0.360656" stop-color="#0084E7"/><stop offset="0.377049" stop-color="#0085E7"/><stop offset="0.393443" stop-color="#0086E7"/><stop offset="0.409836" stop-color="#0087E8"/><stop offset="0.42623" stop-color="#0089E8"/><stop offset="0.442623" stop-color="#008AE8"/><stop offset="0.459016" stop-color="#008BE8"/><stop offset="0.47541" stop-color="#008CE8"/><stop offset="0.491803" stop-color="#008DE8"/><stop offset="0.508197" stop-color="#008EE8"/><stop offset="0.52459" stop-color="#008FE9"/><stop offset="0.540984" stop-color="#0090E9"/><stop offset="0.557377" stop-color="#0091E9"/><stop offset="0.57377" stop-color="#0092E9"/><stop offset="0.590164" stop-color="#0093E9"/><stop offset="0.606557" stop-color="#0094E9"/><stop offset="0.622951" stop-color="#0095E9"/><stop offset="0.639344" stop-color="#0095E9"/><stop offset="0.655738" stop-color="#0096E9"/><stop offset="0.672131" stop-color="#0097EA"/><stop offset="0.688525" stop-color="#0098EA"/><stop offset="0.704918" stop-color="#0098EA"/><stop offset="0.721311" stop-color="#0099EA"/><stop offset="0.737705" stop-color="#0099EA"/><stop offset="0.754098" stop-color="#009AEA"/><stop offset="0.770492" stop-color="#009BEA"/><stop offset="0.786885" stop-color="#009BEA"/><stop offset="0.803279" stop-color="#009CEA"/><stop offset="0.819672" stop-color="#009CEA"/><stop offset="0.836066" stop-color="#009CEA"/><stop offset="0.852459" stop-color="#009DEA"/><stop offset="0.868852" stop-color="#009DEA"/><stop offset="0.885246" stop-color="#009DEA"/><stop offset="0.901639" stop-color="#009EEA"/><stop offset="0.918033" stop-color="#009EEA"/><stop offset="0.934426" stop-color="#009EEA"/><stop offset="0.95082" stop-color="#009EEA"/><stop offset="0.967213" stop-color="#009EEA"/><stop offset="0.983607" stop-color="#009EEA"/><stop offset="1" stop-color="#009FEB"/></linearGradient><linearGradient x1="2681.5" y1="1221" x2="2681.5" y2="1063" gradientUnits="userSpaceOnUse" spreadMethod="reflect" id="fill2"><stop offset="0" stop-color="#0061E3"/><stop offset="0.0163934" stop-color="#0062E3"/><stop offset="0.0327869" stop-color="#0064E3"/><stop offset="0.0491803" stop-color="#0066E3"/><stop offset="0.0655738" stop-color="#0068E3"/><stop offset="0.0819672" stop-color="#006AE4"/><stop offset="0.0983607" stop-color="#006BE4"/><stop offset="0.114754" stop-color="#006DE4"/><stop offset="0.131148" stop-color="#006FE4"/><stop offset="0.147541" stop-color="#0071E5"/><stop offset="0.163934" stop-color="#0072E5"/><stop offset="0.180328" stop-color="#0074E5"/><stop offset="0.196721" stop-color="#0075E5"/><stop offset="0.213115" stop-color="#0077E5"/><stop offset="0.229508" stop-color="#0078E6"/><stop offset="0.245902" stop-color="#007AE6"/><stop offset="0.262295" stop-color="#007BE6"/><stop offset="0.278689" stop-color="#007DE6"/><stop offset="0.295082" stop-color="#007EE6"/><stop offset="0.311475" stop-color="#0080E7"/><stop offset="0.327869" stop-color="#0081E7"/><stop offset="0.344262" stop-color="#0082E7"/><stop offset="0.360656" stop-color="#0084E7"/><stop offset="0.377049" stop-color="#0085E7"/><stop offset="0.393443" stop-color="#0086E7"/><stop offset="0.409836" stop-color="#0087E8"/><stop offset="0.42623" stop-color="#0089E8"/><stop offset="0.442623" stop-color="#008AE8"/><stop offset="0.459016" stop-color="#008BE8"/><stop offset="0.47541" stop-color="#008CE8"/><stop offset="0.491803" stop-color="#008DE8"/><stop offset="0.508197" stop-color="#008EE8"/><stop offset="0.52459" stop-color="#008FE9"/><stop offset="0.540984" stop-color="#0090E9"/><stop offset="0.557377" stop-color="#0091E9"/><stop offset="0.57377" stop-color="#0092E9"/><stop offset="0.590164" stop-color="#0093E9"/><stop offset="0.606557" stop-color="#0094E9"/><stop offset="0.622951" stop-color="#0095E9"/><stop offset="0.639344" stop-color="#0095E9"/><stop offset="0.655738" stop-color="#0096E9"/><stop offset="0.672131" stop-color="#0097EA"/><stop offset="0.688525" stop-color="#0098EA"/><stop offset="0.704918" stop-color="#0098EA"/><stop offset="0.721311" stop-color="#0099EA"/><stop offset="0.737705" stop-color="#0099EA"/><stop offset="0.754098" stop-color="#009AEA"/><stop offset="0.770492" stop-color="#009BEA"/><stop offset="0.786885" stop-color="#009BEA"/><stop offset="0.803279" stop-color="#009CEA"/><stop offset="0.819672" stop-color="#009CEA"/><stop offset="0.836066" stop-color="#009CEA"/><stop offset="0.852459" stop-color="#009DEA"/><stop offset="0.868852" stop-color="#009DEA"/><stop offset="0.885246" stop-color="#009DEA"/><stop offset="0.901639" stop-color="#009EEA"/><stop offset="0.918033" stop-color="#009EEA"/><stop offset="0.934426" stop-color="#009EEA"/><stop offset="0.95082" stop-color="#009EEA"/><stop offset="0.967213" stop-color="#009EEA"/><stop offset="0.983607" stop-color="#009EEA"/><stop offset="1" stop-color="#009FEB"/></linearGradient></defs><g clip-path="url(#clip0)" transform="translate(-498 -905)"><rect x="1005" y="905" width="2183" height="1373" fill="#FFFFFF"/><rect x="1103" y="958" width="1987" height="1222" fill="#FFFFFF"/><path d="M1298 1089.33C1298 1074.79 1309.79 1063 1324.33 1063L1628.67 1063C1643.21 1063 1655 1074.79 1655 1089.33L1655 1194.67C1655 1209.21 1643.21 1221 1628.67 1221L1324.33 1221C1309.79 1221 1298 1209.21 1298 1194.67Z" fill="url(#fill1)" fill-rule="evenodd"/><text fill="#FFFFFF" font-family="Poppins Medium,Poppins Medium_MSFontService,sans-serif" font-weight="500" font-size="50" transform="matrix(1 0 0 1 1402.74 1160)">Plugin</text><path d="M2503 1089.33C2503 1074.79 2514.79 1063 2529.33 1063L2833.67 1063C2848.21 1063 2860 1074.79 2860 1089.33L2860 1194.67C2860 1209.21 2848.21 1221 2833.67 1221L2529.33 1221C2514.79 1221 2503 1209.21 2503 1194.67Z" fill="url(#fill2)" fill-rule="evenodd"/><text fill="#FFFFFF" font-family="Poppins Medium,Poppins Medium_MSFontService,sans-serif" font-weight="500" font-size="50" transform="matrix(1 0 0 1 2610.17 1160)">Agent</text><path d="M1476.5 1221.5 1476.5 2073.36" stroke="#0061E3" stroke-width="6.875" stroke-miterlimit="8" fill="none" fill-rule="evenodd"/><path d="M2695.5 1221.5 2695.5 2073.36" stroke="#0061E3" stroke-width="6.875" stroke-miterlimit="8" fill="none" fill-rule="evenodd"/><path d="M1476 1556.84 2671.48 1556.84 2671.48 1567.16 1476 1567.16ZM2666.32 1546.53 2697.26 1562 2666.32 1577.47Z" fill="#0061E3"/><path d="M1476 1360.84 1486.31 1360.84 1486.31 1371.16 1476 1371.16ZM1496.63 1360.84 1506.94 1360.84 1506.94 1371.16 1496.63 1371.16ZM1517.25 1360.84 1527.56 1360.84 1527.56 1371.16 1517.25 1371.16ZM1537.88 1360.84 1548.19 1360.84 1548.19 1371.16 1537.88 1371.16ZM1558.5 1360.84 1568.81 1360.84 1568.81 1371.16 1558.5 1371.16ZM1579.13 1360.84 1589.44 1360.84 1589.44 1371.16 1579.13 1371.16ZM1599.75 1360.84 1610.06 1360.84 1610.06 1371.16 1599.75 1371.16ZM1620.38 1360.84 1630.69 1360.84 1630.69 1371.16 1620.38 1371.16ZM1641 1360.84 1651.31 1360.84 1651.31 1371.16 1641 1371.16ZM1661.63 1360.84 1671.94 1360.84 1671.94 1371.16 1661.63 1371.16ZM1682.25 1360.84 1692.56 1360.84 1692.56 1371.16 1682.25 1371.16ZM1702.88 1360.84 1713.19 1360.84 1713.19 1371.16 1702.88 1371.16ZM1723.5 1360.84 1733.81 1360.84 1733.81 1371.16 1723.5 1371.16ZM1744.13 1360.84 1754.44 1360.84 1754.44 1371.16 1744.13 1371.16ZM1764.75 1360.84 1775.06 1360.84 1775.06 1371.16 1764.75 1371.16ZM1785.38 1360.84 1795.69 1360.84 1795.69 1371.16 1785.38 1371.16ZM1806 1360.84 1816.31 1360.84 1816.31 1371.16 1806 1371.16ZM1826.63 1360.84 1836.94 1360.84 1836.94 1371.16 1826.63 1371.16ZM1847.25 1360.84 1857.56 1360.84 1857.56 1371.16 1847.25 1371.16ZM1867.88 1360.84 1878.19 1360.84 1878.19 1371.16 1867.88 1371.16ZM1888.5 1360.84 1898.81 1360.84 1898.81 1371.16 1888.5 1371.16ZM1909.13 1360.84 1919.44 1360.84 1919.44 1371.16 1909.13 1371.16ZM1929.75 1360.84 1940.06 1360.84 1940.06 1371.16 1929.75 1371.16ZM1950.38 1360.84 1960.69 1360.84 1960.69 1371.16 1950.38 1371.16ZM1971 1360.84 1981.31 1360.84 1981.31 1371.16 1971 1371.16ZM1991.63 1360.84 2001.94 1360.84 2001.94 1371.16 1991.63 1371.16ZM2012.25 1360.84 2022.56 1360.84 2022.56 1371.16 2012.25 1371.16ZM2032.88 1360.84 2043.19 1360.84 2043.19 1371.16 2032.88 1371.16ZM2053.5 1360.84 2063.81 1360.84 2063.81 1371.16 2053.5 1371.16ZM2074.12 1360.84 2084.44 1360.84 2084.44 1371.16 2074.12 1371.16ZM2094.75 1360.84 2105.06 1360.84 2105.06 1371.16 2094.75 1371.16ZM2115.38 1360.84 2125.69 1360.84 2125.69 1371.16 2115.38 1371.16ZM2136 1360.84 2146.31 1360.84 2146.31 1371.16 2136 1371.16ZM2156.62 1360.84 2166.94 1360.84 2166.94 1371.16 2156.62 1371.16ZM2177.25 1360.84 2187.56 1360.84 2187.56 1371.16 2177.25 1371.16ZM2197.88 1360.84 2208.19 1360.84 2208.19 1371.16 2197.88 1371.16ZM2218.5 1360.84 2228.81 1360.84 2228.81 1371.16 2218.5 1371.16ZM2239.12 1360.84 2249.44 1360.84 2249.44 1371.16 2239.12 1371.16ZM2259.75 1360.84 2270.06 1360.84 2270.06 1371.16 2259.75 1371.16ZM2280.38 1360.84 2290.69 1360.84 2290.69 1371.16 2280.38 1371.16ZM2301 1360.84 2311.31 1360.84 2311.31 1371.16 2301 1371.16ZM2321.62 1360.84 2331.94 1360.84 2331.94 1371.16 2321.62 1371.16ZM2342.25 1360.84 2352.56 1360.84 2352.56 1371.16 2342.25 1371.16ZM2362.88 1360.84 2373.19 1360.84 2373.19 1371.16 2362.88 1371.16ZM2383.5 1360.84 2393.81 1360.84 2393.81 1371.16 2383.5 1371.16ZM2404.12 1360.84 2414.44 1360.84 2414.44 1371.16 2404.12 1371.16ZM2424.75 1360.84 2435.06 1360.84 2435.06 1371.16 2424.75 1371.16ZM2445.38 1360.84 2455.69 1360.84 2455.69 1371.16 2445.38 1371.16ZM2466 1360.84 2476.31 1360.84 2476.31 1371.16 2466 1371.16ZM2486.62 1360.84 2496.94 1360.84 2496.94 1371.16 2486.62 1371.16ZM2507.25 1360.84 2517.56 1360.84 2517.56 1371.16 2507.25 1371.16ZM2527.88 1360.84 2538.19 1360.84 2538.19 1371.16 2527.88 1371.16ZM2548.5 1360.84 2558.81 1360.84 2558.81 1371.16 2548.5 1371.16ZM2569.12 1360.84 2579.44 1360.84 2579.44 1371.16 2569.12 1371.16ZM2589.75 1360.84 2600.06 1360.84 2600.06 1371.16 2589.75 1371.16ZM2610.38 1360.84 2620.69 1360.84 2620.69 1371.16 2610.38 1371.16ZM2631 1360.84 2641.31 1360.84 2641.31 1371.16 2631 1371.16ZM2651.62 1360.84 2661.94 1360.84 2661.94 1371.16 2651.62 1371.16ZM2666.32 1350.53 2697.26 1366 2666.32 1381.47Z" fill="#0061E3"/><text fill="#0061E3" font-family="Arial,Arial_MSFontService,sans-serif" font-weight="400" font-size="48" transform="matrix(1 0 0 1 1668.18 1328)">WebSocket Connection to Port  55688</text><text fill="#0061E3" font-family="Arial,Arial_MSFontService,sans-serif" font-weight="400" font-size="48" transform="matrix(1 0 0 1 1838.86 1531)">v2/</text><text fill="#0061E3" font-family="Arial,Arial_MSFontService,sans-serif" font-weight="400" font-size="48" transform="matrix(1 0 0 1 1903.03 1531)">notifyPluginUpdate</text><path d="M1476 1752.84 2671.48 1752.84 2671.48 1763.16 1476 1763.16ZM2666.32 1742.53 2697.26 1758 2666.32 1773.47Z" fill="#0061E3"/><text fill="#0061E3" font-family="Arial,Arial_MSFontService,sans-serif" font-weight="400" font-size="48" transform="matrix(1 0 0 1 1864.98 1722)">v2/</text><text fill="#0061E3" font-family="Arial,Arial_MSFontService,sans-serif" font-weight="400" font-size="48" transform="matrix(1 0 0 1 1929.15 1722)">notifyPluginState</text><path d="M1476 1948.84 2671.48 1948.84 2671.48 1959.16 1476 1959.16ZM2666.32 1938.53 2697.26 1954 2666.32 1969.47Z" fill="#0061E3"/><text fill="#0061E3" font-family="Arial,Arial_MSFontService,sans-serif" font-weight="400" font-size="48" transform="matrix(1 0 0 1 1864.98 1916)">v2/</text><text fill="#0061E3" font-family="Arial,Arial_MSFontService,sans-serif" font-weight="400" font-size="48" transform="matrix(1 0 0 1 1929.15 1916)">notifyPluginState</text></g></svg>